<?xml version="1.0" encoding="UTF-8" standalone="no"?>
<!-- Created with Inkscape (http://www.inkscape.org/) -->

<svg
   xmlns:dc="http://purl.org/dc/elements/1.1/"
   xmlns:cc="http://creativecommons.org/ns#"
   xmlns:rdf="http://www.w3.org/1999/02/22-rdf-syntax-ns#"
   xmlns:svg="http://www.w3.org/2000/svg"
   xmlns="http://www.w3.org/2000/svg"
   xmlns:sodipodi="http://sodipodi.sourceforge.net/DTD/sodipodi-0.dtd"
   xmlns:inkscape="http://www.inkscape.org/namespaces/inkscape"
   width="800"
   height="512"
   id="svg3043"
   version="1.1"
   inkscape:version="0.48.4 r9939"
   sodipodi:docname="inst1.svg">
  <defs
     id="defs3045" />
  <sodipodi:namedview
     id="base"
     pagecolor="#ffffff"
     bordercolor="#666666"
     borderopacity="1.0"
     inkscape:pageopacity="0.0"
     inkscape:pageshadow="2"
     inkscape:zoom="1.2285156"
     inkscape:cx="226.27046"
     inkscape:cy="223.44038"
     inkscape:document-units="px"
     inkscape:current-layer="g3973"
     showgrid="false"
     inkscape:window-width="1440"
     inkscape:window-height="846"
     inkscape:window-x="-4"
     inkscape:window-y="-4"
     inkscape:window-maximized="1" />
  <metadata
     id="metadata3048">
    <rdf:RDF>
      <cc:Work
         rdf:about="">
        <dc:format>image/svg+xml</dc:format>
        <dc:type
           rdf:resource="http://purl.org/dc/dcmitype/StillImage" />
        <dc:title />
      </cc:Work>
    </rdf:RDF>
  </metadata>
  <g
     inkscape:label="Capa 1"
     inkscape:groupmode="layer"
     id="layer1"
     transform="translate(0,-540.36218)"
     sodipodi:insensitive="true">
    <rect
       style="fill:#738fb2;fill-opacity:1;stroke:none"
       id="rect3051"
       width="800"
       height="512"
       x="0"
       y="540.36218" />
    <rect
       y="540.36218"
       x="0"
       height="512"
       width="400"
       id="rect2984"
       style="fill:none;stroke:#000000;stroke-opacity:1" />
    <rect
       style="fill:none;stroke:#000000;stroke-opacity:1"
       id="rect2986"
       width="400"
       height="512"
       x="400"
       y="540.36218" />
  </g>
  <g
     inkscape:groupmode="layer"
     id="layer2"
     inkscape:label="capa1"
     style="display:inline">
    <flowRoot
       xml:space="preserve"
       id="flowRoot3774"
       style="font-size:20px;font-style:normal;font-variant:normal;font-weight:normal;font-stretch:normal;text-align:justify;line-height:125%;letter-spacing:0px;word-spacing:0px;text-anchor:start;fill:#000000;fill-opacity:1;stroke:none;font-family:Ubuntu;-inkscape-font-specification:Ubuntu"
       transform="matrix(0.99982913,0,0,1.0069804,0.50064686,0.39928477)"><flowRegion
         id="flowRegion3776"><rect
           id="rect3778"
           width="340.24799"
           height="452.5787"
           x="29.303656"
           y="30.117647"
           style="font-size:20px;text-align:justify;text-anchor:start;fill:#000000;fill-opacity:1" /></flowRegion><flowPara
         id="flowPara3780"
         style="font-size:24px;text-align:justify;text-anchor:start;fill:#000000">¡ Bienvenidos a BOMBARDI !</flowPara><flowPara
         id="flowPara3788"
         style="font-size:24px;text-align:justify;text-anchor:start;fill:#000000" /><flowPara
         style="font-size:24px;text-align:justify;text-anchor:start;fill:#000000"
         id="flowPara3807">Si estás leyendo esto, muy posiblemente lo jugaste sin entender nada o te ganaron porque no sabías que &quot;se podía...&quot;.</flowPara><flowPara
         style="font-size:24px;text-align:justify;text-anchor:start;fill:#000000"
         id="flowPara3809" /><flowPara
         style="font-size:24px;text-align:justify;text-anchor:start;fill:#000000"
         id="flowPara3811">Si no es el caso, no te pierdes de mucho: <flowSpan
   style="font-size:21.92548942999999900px;fill:#000000"
   id="flowSpan3825">BOMBARDI</flowSpan> tiene reglas simples y una interfaz intuitiva.</flowPara><flowPara
         style="font-size:24px;text-align:justify;text-anchor:start;fill:#000000"
         id="flowPara3819" /><flowPara
         style="font-size:24px;text-align:justify;text-anchor:start;fill:#000000"
         id="flowPara3815">Aunque tampoco es un juego trivial.</flowPara><flowPara
         style="font-size:20px;text-align:justify;text-anchor:start;fill:#000000"
         id="flowPara3817" /><flowPara
         style="font-size:20px;text-align:justify;text-anchor:start;fill:#000000"
         id="flowPara3821" /></flowRoot>    <flowRoot
       transform="matrix(0.99982913,0,0,1.0069804,400.50065,0.39928477)"
       style="font-size:20px;font-style:normal;font-variant:normal;font-weight:normal;font-stretch:normal;text-align:justify;line-height:125%;letter-spacing:0px;word-spacing:0px;text-anchor:start;fill:#000000;fill-opacity:1;stroke:none;font-family:Ubuntu;-inkscape-font-specification:Ubuntu"
       id="flowRoot3829"
       xml:space="preserve"><flowRegion
         id="flowRegion3831"><rect
           style="font-size:20px;text-align:justify;text-anchor:start;fill:#000000;fill-opacity:1"
           y="30.117647"
           x="29.303656"
           height="452.5787"
           width="340.24799"
           id="rect3833" /></flowRegion><flowPara
         id="flowPara3849"
         style="font-size:24px;text-align:justify;text-anchor:start;fill:#000000">Lo primero es elegir el número de jugadores -entre 2 y 5- y un color para cada uno. </flowPara><flowPara
         style="font-size:24px;text-align:justify;text-anchor:start;fill:#000000"
         id="flowPara3884" /><flowPara
         style="font-size:24px;text-align:justify;text-anchor:start;fill:#000000"
         id="flowPara3890">Cada jugador controla la ficha, así como las bombas y paredes, de su color.</flowPara><flowPara
         style="font-size:24px;text-align:justify;text-anchor:start;fill:#000000"
         id="flowPara3896" /><flowPara
         style="font-size:24px;text-align:justify;text-anchor:start;fill:#000000"
         id="flowPara3898">Los lugares iniciales están predeterminados.</flowPara><flowPara
         id="flowPara3851"
         style="font-size:20px;text-align:justify;text-anchor:start;fill:#000000" /><flowPara
         id="flowPara3853"
         style="font-size:20px;text-align:justify;text-anchor:start;fill:#000000" /></flowRoot>    <g
       id="g3973"
       transform="translate(-312.57234,-2.4419714)">
      <path
         transform="matrix(0.70599054,0,0,0.70599054,205.07835,157.57975)"
         d="m 552.29253,420.50748 -4.64751,23.49271 -20.87793,-11.7311 -13.28401,19.9259 -14.79938,-18.82776 -19.89815,13.32556 -6.46777,-23.05806 -23.48296,4.69653 2.84849,-23.77799 -23.49271,-4.64751 11.73111,-20.87792 -19.92591,-13.28402 18.82777,-14.79938 -13.32557,-19.89814 23.05807,-6.46778 -4.69653,-23.48296 23.77798,2.84849 4.64752,-23.4927 20.87792,11.7311 13.28401,-19.9259 14.79939,18.82776 19.89814,-13.32556 6.46778,23.05806 23.48295,-4.69653 -2.84849,23.77799 23.49271,4.64751 -11.73111,20.87792 19.92591,13.28402 -18.82776,14.79938 13.32556,19.89814 -23.05806,6.46778 4.69652,23.48296 z"
         inkscape:randomized="0"
         inkscape:rounded="0"
         inkscape:flatsided="false"
         sodipodi:arg2="1.1390143"
         sodipodi:arg1="0.94266471"
         sodipodi:r2="90.037979"
         sodipodi:r1="72.03038"
         sodipodi:cy="362.22577"
         sodipodi:cx="509.96503"
         sodipodi:sides="16"
         id="path3166"
         style="fill:#ffff00;fill-opacity:1;stroke:#000000;stroke-width:4.19999981;stroke-miterlimit:4;stroke-opacity:1;stroke-dasharray:none"
         sodipodi:type="star" />
      <g
         transform="matrix(1.0441236,-0.14674201,0.14674201,1.0441236,-265.38273,-416.53926)"
         id="g3168">
        <g
           id="g40"
           transform="matrix(1.25,0,0,1.25,471.52256,122.89338)" />
        <g
           transform="translate(-0.54589005,2.1835602)"
           id="g3132">
          <path
             inkscape:connector-curvature="0"
             id="path26"
             d="m 672.38923,833.48442 2.795,-3.735 4.6575,-2.80125 5.59,-0.93375 6.52,1.8675 0,0 0,0 6.52125,2.80125 3.72625,4.66875 1.86375,5.60375 -0.9325,4.66875 0,0 0,0 -2.79375,4.66875 -4.65875,1.8675 -6.52,0.93375 -6.52125,-1.8675 0,0 0,0 -5.58875,-2.80125 -3.72625,-4.66875 -1.86375,-5.6025 0.93125,-4.67 0,0 0,0 z"
             style="fill:#7e7e7e;stroke:none" />
          <path
             inkscape:connector-curvature="0"
             id="path28"
             d="m 666.80048,833.48442 37.2625,18.67625 -9.31625,17.7425 -36.33,-18.67625 8.38375,-17.7425 z"
             style="fill:#7e7e7e;stroke:none" />
          <path
             inkscape:connector-curvature="0"
             id="path30"
             d="m 632.33273,883.91067 0,-7.47 1.863,-6.5375 3.72625,-5.6025 4.65775,-4.66875 4.65788,-4.66875 5.58925,-3.73625 6.52112,-1.8675 7.4525,0 0,0 0,0 7.4525,0 6.52,1.8675 5.59,3.73625 5.58875,4.66875 3.72625,4.66875 3.72625,5.6025 1.86375,6.5375 0.93125,7.47 0,0 0,0 -0.93125,7.47125 -1.86375,6.53625 -3.72625,5.6025 -3.72625,5.60375 -5.58875,3.735 -5.59,3.735 -6.52,1.8675 -7.4525,0.93375 0,0 0,0 -7.4525,-0.93375 -6.52112,-1.8675 -5.58925,-3.735 -4.65788,-3.735 -4.65775,-5.60375 -3.72625,-5.6025 -1.863,-6.53625 0,-7.47125 0,0 0,0 z"
             style="fill:#7e7e7e;stroke:none" />
          <path
             inkscape:connector-curvature="0"
             id="path32"
             d="m 735.73548,774.65442 5.58875,-3.735 7.4525,0 8.385,1.8675 8.38375,5.6025 0,0 5.58875,7.47 2.795,7.47125 0.93125,7.47 -3.72625,6.5375 0,0 0,0 -5.58875,3.735 -7.4525,0.93375 -8.38375,-2.80125 -8.385,-4.66875 0,0 0,0 -5.58875,-7.47125 -2.795,-8.40375 -0.93125,-7.47125 3.72625,-6.53625 0,0 0,0 z"
             style="fill:#ffc000;stroke:none" />
          <g
             transform="matrix(1.25,0,0,1.25,531.57047,164.92691)"
             id="g46">
            <path
               inkscape:connector-curvature="0"
               id="path48"
               d="m 170.918,482.286 c 2.044,1.195 3.713,2.907 5.653,4.254 1.37,-1.124 2.741,-2.248 4.154,-3.32 1.124,1.982 2.058,4.074 3.343,5.966 1.93,-0.223 3.869,-0.399 5.814,-0.403 0.004,1.949 0.019,3.898 0.047,5.847 2.006,0.924 4.045,1.778 6.084,2.622 -0.816,1.603 -1.963,3.002 -2.935,4.505 1.574,1.783 3.305,3.419 4.827,5.245 -1.783,0.545 -3.575,1.086 -5.396,1.517 0.502,2.162 1.413,4.202 1.916,6.364 -2.168,-0.398 -4.259,-1.148 -6.45,-1.442 -0.289,1.826 -0.673,3.637 -1.038,5.449 -2.02,-1.209 -3.599,-3.035 -5.643,-4.187 -1.589,0.735 -2.684,2.281 -4.169,3.224 -1.119,-1.972 -2.058,-4.049 -3.309,-5.951 -1.67,0.1 -3.339,0.218 -5.008,0.375 0.014,1.541 0.896,2.84 1.337,4.268 0.655,2.65 0.839,5.657 -0.564,8.108 -1.276,2.082 -3.452,3.657 -5.904,3.97 -4.368,0.687 -8.74,-0.835 -12.505,-2.945 -4.187,-2.428 -7.815,-5.842 -10.47,-9.887 -1.499,-2.234 -3.988,-3.481 -6.312,-4.676 -4.714,-2.215 -10.257,-3.737 -15.36,-1.949 -1.508,0.844 -1.541,2.888 -1.228,4.382 0.692,3.215 2.39,6.226 4.771,8.493 2.798,2.717 5.083,5.994 6.52,9.631 0.318,0.858 0.768,1.712 1.636,2.124 2.736,1.617 5.226,3.974 6.241,7.061 0.977,3.111 -0.119,6.326 -0.465,9.446 -0.323,2.76 -1.02,5.487 -1.077,8.27 0.584,1.916 1.774,3.595 2.537,5.449 3.495,7.137 3.519,15.848 0.086,23.009 -6.824,13.913 -24.934,21.145 -39.383,15.316 -6.0225,-2.238 -10.9779,-6.719 -14.5676,-11.964 -4.8892,-7.658 -6.0225,-17.588 -2.9211,-26.133 2.5512,-7.26 8.0093,-13.449 14.909,-16.863 2.1482,-1.205 4.5947,-1.669 6.8377,-2.627 1.949,-2.196 3.524,-4.704 5.33,-7.014 1.741,-2.328 3.329,-4.903 5.795,-6.539 2.276,-1.347 5.013,-1.195 7.559,-1.195 -1.584,-2.148 -3.632,-3.912 -5.136,-6.127 -2.731,-3.902 -4.822,-8.607 -4.277,-13.472 0.223,-2.855 2.034,-5.662 4.813,-6.601 4.51,-1.361 9.418,-1.427 13.951,-0.142 5.809,1.579 11.41,4.728 15.123,9.55 2.39,3.889 6.16,6.782 10.243,8.721 2.21,0.934 4.822,1.892 7.16,0.882 1.954,-0.963 1.717,-3.538 1.053,-5.25 -0.967,-2.366 -1.532,-4.974 -0.953,-7.516 0.303,-1.754 1.764,-2.93 2.892,-4.182 -1.555,-0.783 -3.143,-1.484 -4.713,-2.234 0.872,-1.342 1.935,-2.56 2.736,-3.945 0.285,-0.569 -0.313,-1.015 -0.607,-1.418 -1.318,-1.437 -2.817,-2.717 -3.931,-4.329 1.83,-0.475 3.675,-0.92 5.439,-1.613 -0.716,-2.058 -1.47,-4.111 -2.086,-6.202 2.186,0.379 4.282,1.199 6.501,1.418 0.318,-1.788 0.706,-3.566 1.1,-5.34 m 0.052,7.545 c -1.655,-0.484 -3.319,-0.911 -5.003,-1.266 0.422,1.707 1.001,3.371 1.523,5.05 -1.437,0.427 -2.884,0.82 -4.33,1.214 1.015,1.712 2.698,2.883 3.77,4.557 -0.944,1.204 -1.807,2.461 -2.646,3.737 1.816,0.739 3.642,1.465 5.382,2.38 -0.043,1.722 -0.028,3.448 -0.043,5.169 1.651,-0.123 3.301,-0.332 4.961,-0.318 1.456,1.252 1.968,3.291 3.011,4.88 1.223,-0.939 2.409,-1.925 3.689,-2.788 1.503,1.114 2.969,2.276 4.453,3.414 0.436,-1.484 0.749,-2.997 1.162,-4.486 1.65,0.431 3.31,0.839 4.998,1.114 -0.46,-1.66 -1.024,-3.281 -1.541,-4.922 1.399,-0.479 2.826,-0.887 4.258,-1.266 -0.834,-1.793 -2.565,-2.902 -3.713,-4.472 0.906,-1.233 1.764,-2.504 2.556,-3.817 -1.669,-0.863 -3.642,-1.266 -5.107,-2.452 -0.308,-1.66 -0.123,-3.357 -0.104,-5.036 -1.783,0.104 -3.566,0.194 -5.349,0.265 -0.864,-1.636 -1.755,-3.257 -2.618,-4.893 -1.309,0.721 -2.262,2.2 -3.689,2.575 -1.717,-0.636 -2.912,-2.229 -4.444,-3.211 -0.507,1.489 -0.825,3.035 -1.176,4.572 m -50.465,14.776 c 0.569,0.778 1.048,1.821 2.011,2.148 1.522,0.09 3.049,0.081 4.571,0.218 -0.218,-0.853 -0.464,-1.697 -0.721,-2.537 -1.958,-0.019 -3.912,-0.009 -5.861,0.171 m -6.036,3.846 c -0.024,1.019 1.209,1.19 1.844,1.716 0.645,-1.598 2.058,-2.508 3.618,-3.058 -0.426,-0.669 -0.839,-1.352 -1.218,-2.044 -1.821,0.394 -3.595,1.593 -4.244,3.386 m 13.894,-3.623 c 0.194,0.792 0.379,1.588 0.64,2.366 0.953,0.749 2.229,0.873 3.324,1.356 0.877,0.219 1.755,0.911 2.689,0.617 0.446,-0.546 0.82,-1.143 1.223,-1.726 -2.522,-1.157 -5.14,-2.111 -7.876,-2.613 m 37.339,4.533 c 0.687,0.266 1.375,0.541 2.063,0.816 0.033,-0.939 0.061,-1.883 0.061,-2.822 -0.806,0.56 -1.493,1.262 -2.124,2.006 m -29.316,0.939 c 1.855,1.072 3.514,2.433 5.255,3.675 0.915,0.057 1.825,-0.076 2.731,-0.151 -1.745,-2.158 -3.941,-3.889 -6.264,-5.378 -0.598,0.593 -1.157,1.228 -1.722,1.854 m -22.652,0.503 c -0.133,1.963 0.042,3.94 0.711,5.804 0.863,0.076 1.726,0.157 2.589,0.218 -0.446,-1.508 -0.953,-3.025 -0.996,-4.614 -0.735,-0.521 -1.498,-1 -2.304,-1.408 m 51.238,0.171 c -0.048,1.185 -0.086,2.38 0.142,3.551 0.697,0.512 1.607,0.565 2.414,0.825 -0.124,-1.014 -0.223,-2.029 -0.37,-3.039 -0.285,-0.953 -1.447,-0.939 -2.186,-1.337 m -22.189,4.827 c 1.167,1.982 2.76,3.794 4.719,5.017 0.365,-0.607 0.891,-1.152 1.019,-1.873 -1.019,-1.243 -2.172,-2.376 -3.343,-3.476 -0.811,-0.09 -1.598,0.228 -2.395,0.332 m 23.521,1.1 c 0.256,1.37 0.441,2.75 0.612,4.135 0.441,0.659 1.214,0.939 1.901,1.276 0.105,-1.679 0.086,-3.372 -0.204,-5.032 -0.773,-0.104 -1.545,-0.232 -2.309,-0.379 m -51.053,1.574 c 0.835,2.049 1.963,3.979 3.414,5.648 0.503,-0.649 1.015,-1.29 1.503,-1.949 -0.73,-1.162 -1.484,-2.304 -2.243,-3.447 -0.891,-0.071 -1.782,-0.171 -2.674,-0.252 m 33.484,3.709 c 1.825,1.19 3.575,2.636 5.728,3.201 -0.08,-0.845 -0.152,-1.698 -0.417,-2.514 -1.262,-0.991 -2.679,-1.769 -4.05,-2.594 -0.427,0.636 -0.844,1.271 -1.261,1.907 m 14.122,2.826 c 0.308,0.654 0.682,1.28 1.043,1.92 1.65,-0.393 3.281,-1.256 4.068,-2.84 -0.587,-0.379 -1.176,-0.759 -1.759,-1.138 -0.924,0.967 -2.077,1.655 -3.352,2.058 m -43.039,0.46 c 1.105,1.105 1.982,2.437 3.191,3.433 0.929,-0.09 1.854,-0.246 2.774,-0.408 -1.294,-1.773 -2.584,-3.57 -4.211,-5.059 -0.569,0.692 -1.162,1.365 -1.754,2.034 m 36.139,-1.418 c 0.128,0.783 0.275,1.56 0.408,2.338 1.806,0.474 3.642,0.877 5.524,0.854 -0.393,-0.683 -0.649,-1.48 -1.237,-2.021 -1.527,-0.521 -3.13,-0.787 -4.695,-1.171 m -32.09,6.449 c 0.536,1.101 0.92,2.319 1.693,3.282 0.934,0.474 1.944,0.754 2.945,1.053 -0.45,-1.556 -1.057,-3.064 -1.783,-4.505 -0.953,0.047 -1.906,0.094 -2.855,0.17 m -6.345,5.695 c -0.882,1.736 -0.123,3.747 0.821,5.288 2.745,4.092 7.744,6.795 12.723,6.193 2.357,-0.147 4.837,-2.072 4.614,-4.623 -0.161,-3.097 -2.566,-5.525 -4.956,-7.227 -0.033,1.607 -0.199,3.21 -0.218,4.818 0.403,1.057 1.048,2.043 1.043,3.21 -1.854,0.55 -3.803,0.261 -5.557,-0.474 -1.598,-0.669 -3.571,-1.532 -3.69,-3.524 0.674,-0.279 1.347,-0.545 2.025,-0.806 0.133,-1.963 0.029,-4.196 -1.346,-5.738 -2.115,-0.042 -4.534,0.835 -5.459,2.883 m 8.584,-0.303 c 0.052,1.167 0.061,2.338 0.014,3.509 0.882,0.299 1.773,0.579 2.665,0.844 0.052,-1.147 0.08,-2.29 0.09,-3.438 -0.925,-0.308 -1.845,-0.621 -2.769,-0.915 m -17.447,9.48 c 5.644,2.532 11.415,4.765 17.1,7.198 2.528,0.944 4.908,2.286 7.55,2.893 0.313,-1.874 0.578,-3.756 0.749,-5.648 -2.471,0.782 -5.102,1.266 -7.677,0.711 -5.786,-1.015 -11.348,-4.334 -14.435,-9.418 -1.38,1.176 -2.381,2.708 -3.287,4.264 m -16.9903,12.371 c -7.7058,7.199 -9.9204,19.348 -5.6336,28.922 3.1678,7.203 9.6739,12.899 17.3039,14.919 5.885,1.66 12.106,0.74 17.811,-1.171 0.057,-0.607 -0.223,-1.437 0.446,-1.798 4.785,-3.035 9.337,-7.075 11.405,-12.49 -4.306,1.55 -9.613,1.247 -12.899,-2.253 -4.467,-4.495 -2.964,-13.145 2.888,-15.682 3.282,-1.873 7.213,-1.46 10.646,-0.28 -0.877,-3.034 -2.684,-5.671 -4.714,-8.047 -0.678,-0.687 -0.573,-1.683 -0.569,-2.561 -5.41,-2.224 -10.807,-4.476 -16.203,-6.733 -0.636,-0.237 -1.276,-0.503 -1.959,-0.55 -6.881,-0.067 -13.7708,2.712 -18.5223,7.724 m 37.9413,0.048 c 3.338,4.31 6.264,9.223 6.724,14.781 -1.892,-2.082 -4.211,-4.064 -7.175,-4.178 -4.865,-0.569 -9.986,3.291 -10.176,8.308 -0.337,3.927 2.712,7.531 6.392,8.545 2.599,0.65 5.515,0.304 7.754,-1.223 1.043,-0.816 1.892,-1.864 3.015,-2.584 -1.251,6.975 -5.647,13.083 -11.366,17.142 8.626,-4.187 14.492,-13.681 14.193,-23.302 -0.005,-5.501 -2.03,-10.964 -5.52,-15.203 -0.939,-1.248 -2.452,-1.741 -3.841,-2.286 z"
               style="fill:#000000;stroke:none" />
            <path
               inkscape:connector-curvature="0"
               id="path50"
               d="m 120.505,504.607 c 1.949,-0.18 3.903,-0.19 5.861,-0.171 0.257,0.84 0.503,1.684 0.721,2.537 -1.522,-0.137 -3.049,-0.128 -4.571,-0.218 -0.963,-0.327 -1.442,-1.37 -2.011,-2.148 z"
               style="fill:#ffffff;stroke:none" />
            <path
               inkscape:connector-curvature="0"
               id="path52"
               d="m 114.469,508.453 c 0.649,-1.793 2.423,-2.992 4.244,-3.386 0.379,0.692 0.792,1.375 1.218,2.044 -1.56,0.55 -2.973,1.46 -3.618,3.058 -0.635,-0.526 -1.868,-0.697 -1.844,-1.716 z"
               style="fill:#ffffff;stroke:none" />
            <path
               inkscape:connector-curvature="0"
               id="path54"
               d="m 128.363,504.83 c 2.736,0.502 5.354,1.456 7.876,2.613 -0.403,0.583 -0.777,1.18 -1.223,1.726 -0.934,0.294 -1.812,-0.398 -2.689,-0.617 -1.095,-0.483 -2.371,-0.607 -3.324,-1.356 -0.261,-0.778 -0.446,-1.574 -0.64,-2.366 z"
               style="fill:#ffffff;stroke:none" />
            <path
               inkscape:connector-curvature="0"
               id="path56"
               d="m 165.702,509.363 c 0.631,-0.744 1.318,-1.446 2.124,-2.006 0,0.939 -0.028,1.883 -0.061,2.822 -0.688,-0.275 -1.376,-0.55 -2.063,-0.816 z"
               style="fill:#ffffff;stroke:none" />
            <path
               inkscape:connector-curvature="0"
               id="path58"
               d="m 136.386,510.302 c 0.565,-0.626 1.124,-1.261 1.722,-1.854 2.323,1.489 4.519,3.22 6.264,5.378 -0.906,0.075 -1.816,0.208 -2.731,0.151 -1.741,-1.242 -3.4,-2.603 -5.255,-3.675 z"
               style="fill:#ffffff;stroke:none" />
            <path
               inkscape:connector-curvature="0"
               id="path60"
               d="m 113.734,510.805 c 0.806,0.408 1.569,0.887 2.304,1.408 0.043,1.589 0.55,3.106 0.996,4.614 -0.863,-0.061 -1.726,-0.142 -2.589,-0.218 -0.669,-1.864 -0.844,-3.841 -0.711,-5.804 z"
               style="fill:#ffffff;stroke:none" />
            <path
               inkscape:connector-curvature="0"
               id="path62"
               d="m 164.972,510.976 c 0.739,0.398 1.901,0.384 2.186,1.337 0.147,1.01 0.246,2.025 0.37,3.039 -0.807,-0.26 -1.717,-0.313 -2.414,-0.825 -0.228,-1.171 -0.19,-2.366 -0.142,-3.551 z"
               style="fill:#ffffff;stroke:none" />
            <path
               inkscape:connector-curvature="0"
               id="path64"
               d="m 142.783,515.803 c 0.797,-0.104 1.584,-0.422 2.395,-0.332 1.171,1.1 2.324,2.233 3.343,3.476 -0.128,0.721 -0.654,1.266 -1.019,1.873 -1.959,-1.223 -3.552,-3.035 -4.719,-5.017 z"
               style="fill:#ffffff;stroke:none" />
            <path
               inkscape:connector-curvature="0"
               id="path66"
               d="m 166.304,516.903 c 0.764,0.147 1.536,0.275 2.309,0.379 0.29,1.66 0.309,3.353 0.204,5.032 -0.687,-0.337 -1.46,-0.617 -1.901,-1.276 -0.171,-1.385 -0.356,-2.765 -0.612,-4.135 z"
               style="fill:#ffffff;stroke:none" />
            <path
               inkscape:connector-curvature="0"
               id="path68"
               d="m 115.251,518.477 c 0.892,0.081 1.783,0.181 2.674,0.252 0.759,1.143 1.513,2.285 2.243,3.447 -0.488,0.659 -1,1.3 -1.503,1.949 -1.451,-1.669 -2.579,-3.599 -3.414,-5.648 z"
               style="fill:#ffffff;stroke:none" />
            <path
               inkscape:connector-curvature="0"
               id="path70"
               d="m 148.735,522.186 c 0.417,-0.636 0.834,-1.271 1.261,-1.907 1.371,0.825 2.788,1.603 4.05,2.594 0.265,0.816 0.337,1.669 0.417,2.514 -2.153,-0.565 -3.903,-2.011 -5.728,-3.201 z"
               style="fill:#ffffff;stroke:none" />
            <path
               inkscape:connector-curvature="0"
               id="path72"
               d="m 162.857,525.012 c 1.275,-0.403 2.428,-1.091 3.352,-2.058 0.583,0.379 1.172,0.759 1.759,1.138 -0.787,1.584 -2.418,2.447 -4.068,2.84 -0.361,-0.64 -0.735,-1.266 -1.043,-1.92 z"
               style="fill:#ffffff;stroke:none" />
            <path
               inkscape:connector-curvature="0"
               id="path74"
               d="m 119.818,525.472 c 0.592,-0.669 1.185,-1.342 1.754,-2.034 1.627,1.489 2.917,3.286 4.211,5.059 -0.92,0.162 -1.845,0.318 -2.774,0.408 -1.209,-0.996 -2.086,-2.328 -3.191,-3.433 z"
               style="fill:#ffffff;stroke:none" />
            <path
               inkscape:connector-curvature="0"
               id="path76"
               d="m 155.957,524.054 c 1.565,0.384 3.168,0.65 4.695,1.171 0.588,0.541 0.844,1.338 1.237,2.021 -1.882,0.023 -3.718,-0.38 -5.524,-0.854 -0.133,-0.778 -0.28,-1.555 -0.408,-2.338 z"
               style="fill:#ffffff;stroke:none" />
            <path
               inkscape:connector-curvature="0"
               id="path78"
               d="m 123.867,530.503 c 0.949,-0.076 1.902,-0.123 2.855,-0.17 0.726,1.441 1.333,2.949 1.783,4.505 -1.001,-0.299 -2.011,-0.579 -2.945,-1.053 -0.773,-0.963 -1.157,-2.181 -1.693,-3.282 z"
               style="fill:#ffffff;stroke:none" />
            <path
               inkscape:connector-curvature="0"
               id="path80"
               d="m 126.106,535.895 c 0.924,0.294 1.844,0.607 2.769,0.915 -0.01,1.148 -0.038,2.291 -0.09,3.438 -0.892,-0.265 -1.783,-0.545 -2.665,-0.844 0.047,-1.171 0.038,-2.342 -0.014,-3.509 z"
               style="fill:#ffffff;stroke:none" />
            <path
               inkscape:connector-curvature="0"
               id="path82"
               d="m 129.61,557.794 c 1.389,0.545 2.902,1.038 3.841,2.286 3.49,4.239 5.515,9.702 5.52,15.203 0.299,9.621 -5.567,19.115 -14.193,23.302 5.719,-4.059 10.115,-10.167 11.366,-17.142 -1.123,0.72 -1.972,1.768 -3.015,2.584 -2.239,1.527 -5.155,1.873 -7.754,1.223 -3.68,-1.014 -6.729,-4.618 -6.392,-8.545 0.19,-5.017 5.311,-8.877 10.176,-8.308 2.964,0.114 5.283,2.096 7.175,4.178 -0.46,-5.558 -3.386,-10.471 -6.724,-14.781 z"
               style="fill:#ffffff;stroke:none" />
          </g>
        </g>
      </g>
      <g
         transform="matrix(-1,0,0,1,1176.0558,75.701113)"
         id="g3126">
        <path
           inkscape:connector-curvature="0"
           style="fill:#ffffff;fill-opacity:1;fill-rule:nonzero;stroke:#000000;stroke-width:3.61417317px;stroke-linecap:butt;stroke-linejoin:miter;stroke-miterlimit:4;stroke-opacity:1;stroke-dasharray:none"
           d="m 611.21435,382.06632 c 9.46063,-2.76378 18.14173,-8.39764 24.16535,-16.19292 3.57874,-4.8189 0.46063,-12.08268 -4.74803,-14.24409 -6.55512,-2.76378 -13.88976,0.38976 -19.24016,4.32283 -3.7559,2.94095 -8.00787,6.51969 -13.14567,5.42126 -4.46456,-0.38976 -9.99212,-1.27559 -12.01181,-5.91732 -3.18897,-6.20079 -1.59449,-13.3937 -2.83464,-19.98425 -0.77953,-3.93307 -6.05906,-8.92914 -9.5315,-4.78347 -4.67716,6.30709 -4.96063,14.49213 -5.81102,22.00394 -0.9567,4.85433 -8.6811,-0.24803 -9.03544,4.67717 -0.99212,7.40551 -0.67322,14.95275 -0.60236,22.42913 -0.14173,2.30315 0.3189,5.35039 3.08268,3.18897 3.82677,-1.87795 6.05905,-6.37795 10.45276,-7.01574 4.92519,-0.67323 6.69685,5.20866 11.01968,6.41338 4.67717,1.87796 9.81496,2.05512 14.77559,2.30315 4.67717,0.14173 9.14173,-1.06299 13.46457,-2.62204 z"
           id="path3094" />
        <path
           inkscape:connector-curvature="0"
           style="fill:#000000;fill-opacity:1;fill-rule:nonzero;stroke:none"
           d="m 577.3049,327.21592 c -5.84646,0.3189 -7.72441,7.01575 -9.1063,11.65748 -2.62205,4.3937 1.41732,14.63386 -5.66929,14.45669 -6.44882,-1.41732 -5.52756,6.23622 -5.88189,10.31103 -0.38977,6.51968 -0.0709,13.03937 0.0709,19.52362 2.65748,5.84646 8.29133,-0.63779 11.33858,-2.94094 3.9685,-5.3504 8.82283,-0.14174 12.29527,2.83464 6.30709,3.33071 13.78347,3.43701 20.76378,3.25984 8.53937,-1.16929 16.90158,-4.21653 24.23622,-8.7874 4.88977,-3.50787 9.99213,-7.51181 12.79134,-12.9685 2.55118,-7.33465 -3.72047,-15.59055 -11.37402,-15.69685 -8.0433,-0.77953 -14.84645,4.2874 -20.87007,8.8937 -4.18111,3.08268 -9.8504,1.84252 -14.38583,0.35433 -6.51968,-3.40158 -5.52756,-12.25984 -5.81102,-18.49606 0.21259,-5.27953 -2.72835,-11.44489 -8.39764,-12.40158 z m -0.92126,3.75591 c 4.9252,0.28346 6.02362,6.34252 5.74016,10.34645 0.1063,6.69685 0.21259,14.95276 6.23622,19.27559 5.35039,2.65748 12.33071,3.96851 17.85826,1.20473 6.34252,-4.00394 12.43701,-10.20473 20.58662,-9.3189 6.16535,-0.0354 10.98425,8.18504 6.59055,13.00394 -6.69685,8.29134 -16.37008,13.53543 -26.61024,16.08661 -7.29921,2.30315 -15.16535,1.27559 -22.46456,-0.49606 -6.12992,-3.08268 -11.33859,-8.5748 -13.67717,-15.16536 -3.08268,-6.76771 -0.46063,-14.03149 0.1063,-21.01181 0.81496,-4.85433 1.73622,-10.55905 5.63386,-13.92519 z"
           id="path3096" />
      </g>
      <path
         id="path3082"
         d="m 666.58713,352.85085 c -25.47637,0 -46.13385,20.65748 -46.13385,46.16929 l 0,96.30709 92.30314,0 0,-94.32284 0,-1.98425 c 0,-25.51181 -20.65748,-46.16929 -46.16929,-46.16929 z"
         style="fill:#ffffff;fill-opacity:1;fill-rule:nonzero;stroke:none"
         inkscape:connector-curvature="0" />
      <path
         id="path3084"
         d="m 666.58713,348.84691 c -27.67322,0 -50.13779,22.5 -50.13779,50.17323 l 0,98.29134 0,2.01968 2.01968,0 96.27166,0 2.01968,0 0,-2.01968 0,-98.29134 0,-2.01969 -0.1063,0 c -1.06299,-26.75197 -23.06693,-48.15354 -50.06693,-48.15354 z m 0,4.00394 c 25.51181,0 46.16929,20.65748 46.16929,46.16929 l 0,2.01968 0,94.28741 -92.30314,0 0,-96.30709 c 0,-25.51181 20.65748,-46.16929 46.13385,-46.16929 z"
         style="fill:#000000;fill-opacity:1;fill-rule:nonzero;stroke:none"
         inkscape:connector-curvature="0" />
      <path
         style="fill:none;stroke:#000000;stroke-width:5.07732487;stroke-linecap:round;stroke-linejoin:round;stroke-miterlimit:4;stroke-opacity:1;stroke-dasharray:none"
         d="m 638.55486,423.76534 -0.008,-27.77353 c -9.9e-4,-4.62916 4.25257,-10.44915 9.49444,-10.44915 5.24187,0 9.4921,5.81999 9.49123,10.44915 l -0.005,27.77003"
         id="use3841"
         inkscape:connector-curvature="0"
         sodipodi:nodetypes="csssc" />
      <path
         sodipodi:nodetypes="csssc"
         inkscape:connector-curvature="0"
         id="path3164"
         d="m 675.65366,423.76534 -0.008,-27.77353 c -9.9e-4,-4.62916 4.25257,-10.44915 9.49444,-10.44915 5.24187,0 9.4921,5.81999 9.49123,10.44915 l -0.005,27.77003"
         style="fill:none;stroke:#000000;stroke-width:5.07732487;stroke-linecap:round;stroke-linejoin:round;stroke-miterlimit:4;stroke-opacity:1;stroke-dasharray:none" />
    </g>
  </g>
</svg>
