<?xml version="1.0" encoding="UTF-8" standalone="no"?>
<!-- Created with Inkscape (http://www.inkscape.org/) -->

<svg
   xmlns:dc="http://purl.org/dc/elements/1.1/"
   xmlns:cc="http://creativecommons.org/ns#"
   xmlns:rdf="http://www.w3.org/1999/02/22-rdf-syntax-ns#"
   xmlns:svg="http://www.w3.org/2000/svg"
   xmlns="http://www.w3.org/2000/svg"
   xmlns:sodipodi="http://sodipodi.sourceforge.net/DTD/sodipodi-0.dtd"
   xmlns:inkscape="http://www.inkscape.org/namespaces/inkscape"
   width="256"
   height="96"
   id="svg2"
   version="1.1"
   inkscape:version="0.48.3.1 r9886"
   sodipodi:docname="logo.svg"
   inkscape:export-filename="/home/daisy/Escritorio/Bombardi. C++ edition/bild/logo.png"
   inkscape:export-xdpi="90"
   inkscape:export-ydpi="90">
  <defs
     id="defs4" />
  <sodipodi:namedview
     id="base"
     pagecolor="#ffffff"
     bordercolor="#666666"
     borderopacity="1.0"
     inkscape:pageopacity="0.0"
     inkscape:pageshadow="2"
     inkscape:zoom="2.0000001"
     inkscape:cx="107.13226"
     inkscape:cy="44.901096"
     inkscape:document-units="px"
     inkscape:current-layer="layer1"
     showgrid="false"
     units="px"
     inkscape:window-width="800"
     inkscape:window-height="551"
     inkscape:window-x="0"
     inkscape:window-y="25"
     inkscape:window-maximized="1" />
  <metadata
     id="metadata7">
    <rdf:RDF>
      <cc:Work
         rdf:about="">
        <dc:format>image/svg+xml</dc:format>
        <dc:type
           rdf:resource="http://purl.org/dc/dcmitype/StillImage" />
        <dc:title></dc:title>
      </cc:Work>
    </rdf:RDF>
  </metadata>
  <g
     inkscape:label="Capa 1"
     inkscape:groupmode="layer"
     id="layer1"
     transform="translate(0,-956.3609)">
    <g
       id="g3015"
       transform="matrix(0.40099252,0,0,0.38448444,0.12442907,615.71528)">
      <path
         transform="matrix(0.96252286,-0.11571086,0.13761552,1.2704125,-108.73325,428.36704)"
         d="m 708.07202,474.28775 c 0,18.50054 -148.46302,33.4982 -331.60144,33.4982 -183.13842,0 -331.601439,-14.99766 -331.601439,-33.4982 0,-18.50054 148.463019,-33.4982 331.601439,-33.4982 183.13842,0 331.60144,14.99766 331.60144,33.4982 z"
         sodipodi:ry="33.498199"
         sodipodi:rx="331.60144"
         sodipodi:cy="474.28775"
         sodipodi:cx="376.47058"
         id="path3118"
         style="fill:#376092;fill-opacity:1;stroke:none"
         sodipodi:type="arc" />
      <g
         id="text2996"
         style="font-size:178.13563538px;font-style:normal;font-variant:normal;font-weight:normal;font-stretch:normal;text-align:center;line-height:125%;letter-spacing:0px;word-spacing:0px;writing-mode:lr-tb;text-anchor:middle;fill:#000000;fill-opacity:1;stroke:none;font-family:Juice ITC;-inkscape-font-specification:Juice ITC"
         transform="scale(1.0040169,0.99599918)">
        <path
           inkscape:connector-curvature="0"
           id="path4037"
           d="m 90.870737,1053.1959 c 6.463543,-0.034 13.398043,-0.5497 18.502993,-5.014 10.10073,-8.4012 12.27132,-22.5869 11.69954,-35.0051 -0.47762,-8.4009 -1.38981,-18.34625 -8.71435,-23.77409 -5.04601,-3.45565 -11.3762,-2.08374 -17.052188,-1.78995 -1.478665,21.86104 -2.95733,43.72214 -4.435995,65.58314 z m 4.609955,-69.32329 c 5.866968,0.83089 12.782048,0.88559 16.961138,-4.06628 6.78767,-8.02695 7.1603,-19.26043 7.08881,-29.26905 -0.17564,-8.20661 -2.6501,-18.08056 -11.11165,-21.39692 -2.24009,-0.21521 -8.960245,-3.66801 -9.292493,-0.12439 -1.215269,18.28555 -2.430537,36.57109 -3.645805,54.85664 z m -18.352841,72.71549 c 3.624179,-2.3195 7.248357,-4.6389 10.872536,-6.9584 0,-39.663 0,-79.32602 0,-118.98903 -3.073303,-2.14551 -6.146607,-4.29103 -9.21991,-6.43654 8.695201,0.1399 17.418327,-0.33434 26.089563,0.35801 10.01777,0.92999 19.35294,8.05233 21.80537,17.9871 2.89959,12.09907 0.87089,25.96688 -7.1678,35.75125 -1.78196,2.94111 -7.18319,5.56396 -8.15676,7.05063 12.10331,3.6353 18.93402,16.47848 18.98821,28.53108 0.71964,14.6575 -5.4546,30.2909 -18.31718,38.153 -7.09201,4.6608 -15.726342,4.7064 -23.892242,4.5529 -3.667262,0 -7.334525,0 -11.001787,0 z" />
        <path
           inkscape:connector-curvature="0"
           id="path4039"
           d="m 200.63987,1056.5881 c 3.68216,-2.3195 7.36433,-4.6389 11.04649,-6.9584 0,-39.663 0,-79.32602 0,-118.98903 -3.0733,-2.14551 -6.14661,-4.29103 -9.21991,-6.43654 7.36433,0 14.72867,0 22.093,0 4.32002,21.51313 8.64004,43.02625 12.96006,64.53938 8.66904,-21.51313 17.33807,-43.02625 26.00711,-64.53938 4.08807,0 8.17615,0 12.26422,0 -3.18928,2.14551 -6.37855,4.29103 -9.56783,6.43654 0,39.83698 0,79.67393 0,119.51093 3.18928,2.1455 6.37855,4.291 9.56783,6.4365 -6.92943,0 -13.85886,0 -20.78829,0 2.26149,-37.9524 4.52297,-75.90478 6.78446,-113.85717 -7.85722,24.76039 -15.71444,49.52078 -23.57166,74.28117 -5.45076,-28.32658 -10.90153,-56.65316 -16.35229,-84.97974 -2.43545,41.51858 -4.8709,83.03714 -7.30635,124.55574 -4.63895,0 -9.27789,0 -13.91684,0 z" />
        <path
           inkscape:connector-curvature="0"
           id="path4041"
           d="m 291.62126,1053.1959 c 6.46354,-0.034 13.39804,-0.5497 18.50299,-5.014 10.10073,-8.4012 12.27132,-22.5869 11.69954,-35.0051 -0.47762,-8.4009 -1.38981,-18.34625 -8.71435,-23.77409 -5.04601,-3.45565 -11.3762,-2.08374 -17.05219,-1.78995 -1.47866,21.86104 -2.95733,43.72214 -4.43599,65.58314 z m 4.60995,-69.32329 c 5.86697,0.83089 12.78205,0.88559 16.96114,-4.06628 6.78767,-8.02694 7.1603,-19.26043 7.08881,-29.26905 -0.17564,-8.20661 -2.6501,-18.08056 -11.11165,-21.39692 -2.24009,-0.21521 -8.96025,-3.66801 -9.2925,-0.12439 -1.21527,18.28555 -2.43053,36.57109 -3.6458,54.85664 z m -18.35284,72.71549 c 3.62418,-2.3195 7.24836,-4.6389 10.87254,-6.9584 0,-39.663 0,-79.32602 0,-118.98903 -3.0733,-2.14551 -6.14661,-4.29103 -9.21991,-6.43654 8.6952,0.1399 17.41832,-0.33434 26.08956,0.35801 10.01777,0.92999 19.35293,8.05233 21.80537,17.9871 2.89959,12.09907 0.87088,25.96688 -7.16781,35.75125 -1.78196,2.94111 -7.18318,5.56396 -8.15675,7.05063 12.10331,3.6353 18.93401,16.47848 18.9882,28.53108 0.71965,14.6575 -5.45459,30.2909 -18.31718,38.153 -7.09201,4.6608 -15.72633,4.7064 -23.89223,4.5529 -3.66727,0 -7.33453,0 -11.00179,0 z" />
        <path
           inkscape:connector-curvature="0"
           id="path4043"
           d="m 374.07856,998.31134 c -3.85613,-15.13457 -7.71225,-30.26914 -11.56838,-45.40371 -1.62363,15.13457 -3.24727,30.26914 -4.8709,45.40371 5.47976,0 10.95952,0 16.43928,0 z m 26.52899,58.27676 c -8.61105,0 -17.2221,0 -25.83315,0 3.91411,-2.9573 7.82823,-5.9147 11.74234,-8.872 -3.85613,-15.2795 -7.71225,-30.5591 -11.56838,-45.8386 -5.88567,0 -11.77133,0 -17.657,0 -1.94256,18.2369 -3.88512,36.4737 -5.82768,54.7106 -7.01641,0 -14.03282,0 -21.04923,0 3.45022,-2.3774 6.90044,-4.7549 10.35066,-7.1323 8.32111,-42.3884 16.64223,-84.77682 24.96334,-127.16523 8.06017,41.86651 16.12035,83.73303 24.18052,125.59953 3.56619,2.8993 7.13239,5.7987 10.69858,8.698 z" />
        <path
           inkscape:connector-curvature="0"
           id="path4045"
           d="m 418.5255,1000.3119 c 8.96715,1.3817 17.36482,-4.63842 21.28298,-12.39085 6.29649,-11.82724 7.04177,-25.8838 5.32073,-38.94639 -1.28355,-8.97231 -6.30202,-18.9197 -15.99757,-20.86168 -2.06982,-0.0324 -6.88243,-2.14857 -6.12434,1.50497 -1.49393,23.56468 -2.98787,47.12937 -4.4818,70.69405 m -17.48304,56.2762 c 3.62418,-2.3195 7.24836,-4.6389 10.87254,-6.9584 0,-39.663 0,-79.32602 0,-118.98903 -3.0733,-2.14551 -6.14661,-4.29103 -9.21991,-6.43654 8.36762,0.14871 16.76822,-0.35312 25.10773,0.37312 13.61811,1.6936 23.57092,14.0664 25.8581,27.05063 3.13947,15.35435 -0.30747,33.02759 -12.48336,43.68981 -3.61081,3.19092 -7.90721,5.56971 -12.47536,7.08171 6.92943,15.2795 13.85885,30.5591 20.78828,45.8386 3.62418,2.7834 7.24836,5.5667 10.87254,8.3501 -8.95897,0 -17.91794,0 -26.87691,0 4.08807,-3.0153 8.17615,-6.0306 12.26422,-9.0459 -9.13293,-14.5547 -18.26586,-29.1094 -27.39879,-43.6641 -1.18873,17.57 -2.37746,35.14 -3.56619,52.71 -4.58096,0 -9.16193,0 -13.74289,0 z" />
        <path
           inkscape:connector-curvature="0"
           id="path4047"
           d="m 475.32362,1053.1959 c 9.64872,0.1904 17.90108,-6.792 21.62534,-15.3154 6.74648,-14.8583 7.69365,-31.5156 8.64208,-47.57361 0.40315,-15.70399 1.21978,-31.69694 -2.43919,-47.10294 -1.52109,-7.1828 -6.91157,-13.79923 -14.42827,-14.99492 -3.12058,-0.98085 -6.06923,-0.98359 -5.27678,2.88531 -2.70772,40.70052 -5.41545,81.40106 -8.12318,122.10156 z m -13.74289,3.3922 c 3.62418,-2.3195 7.24836,-4.6389 10.87254,-6.9584 0,-39.663 0,-79.32602 0,-118.98903 -3.0733,-2.14551 -6.14661,-4.29103 -9.21991,-6.43654 7.81374,0.14367 15.66002,-0.34248 23.44576,0.36318 11.05003,1.35219 19.18768,10.59296 22.88379,20.56208 5.78084,15.16596 6.21445,31.774 5.29245,47.7977 -1.55283,18.65061 -6.43909,37.81161 -18.13459,52.78851 -5.55479,6.973 -14.28702,11.6064 -23.32825,10.8725 -3.93727,0 -7.87453,0 -11.81179,0 z" />
        <path
           inkscape:connector-curvature="0"
           id="path4049"
           d="m 524.64143,930.29275 c 1.14495,-4.72923 7.32528,-5.32563 11.45523,-5.56026 4.51049,0.0466 10.18876,0.38212 12.93729,4.46764 0.69915,5.1629 -6.48799,5.8203 -10.31769,6.17253 -4.61916,0.032 -10.29776,0.27751 -13.61003,-3.49379 -0.30063,-0.47044 -0.46852,-1.02686 -0.4648,-1.58612 z m -5.91466,126.29535 c 5.01586,-2.0875 10.03173,-4.175 15.04759,-6.2625 -0.95678,-34.5602 -1.91357,-69.12037 -2.87035,-103.68055 -4.63895,-2.11652 -9.27789,-4.23304 -13.91684,-6.34956 13.36597,0 26.73194,0 40.09791,0 -4.8709,2.11652 -9.74179,4.23304 -14.61269,6.34956 -1.73961,34.56018 -3.47921,69.12035 -5.21882,103.68055 4.98687,2.0875 9.97374,4.175 14.96061,6.2625 -11.16247,0 -22.32494,0 -33.48741,0 z" />
      </g>
      <g
         inkscape:label="Capa 1"
         id="layer1-0"
         transform="matrix(0.21320636,0.0317424,-0.0317424,0.21320636,158.41687,801.03753)">
        <g
           id="g4463"
           transform="matrix(0.02696774,0,0,0.02727808,163.80541,703.40424)">
          <path
             inkscape:connector-curvature="0"
             id="path4314"
             d="m -2379.6093,5050.7809 c 1153.8891,-1694.665 3453.7462,-2546.043 5492.1182,-2042.712 2142.1256,467.48 3813.2046,2382.39 3923.9726,4490.796 171.017,2101.935 -1220.489,4213.8741 -3283.7226,4943.7411 -2069.298,807.814 -4624.70939,113.691 -5954.0058,-1609.591 -1337.8768,-1641.2631 -1414.6668,-4073.0041 -178.3624,-5782.2341 z"
             style="fill:#000000;stroke:#000000;stroke-width:28.52863693;stroke-opacity:1;visibility:visible;display:inline" />
          <path
             inkscape:connector-curvature="0"
             id="path4304"
             d="m 2449.1509,3317.0799 c -24.98,0.06 -49.971,0.365 -74.969,0.906 -863.174,7.61 -1718.93799,272.818 -2441.874988,742.968 -212.049002,134.305 -411.677002,286.32 -597.532002,453.313 783.731,-592.217 1766.01399,-921.325 2748.40699,-922.75 497.516,-0.721 995.074,82.599 1466.875,258.344 451.1716,150.649 868.0976,380.107 1238.4366,669.093 -13.201,-4.126 -26.499,-8.019 -39.875,-11.718 -643.747,-198.476 -1371.2946,110.786 -1733.4996,665 l -1,-2 -22.375,35.375 c -344.62,524.359 -360.09,1262.182 18.031,1773.375 332.676,471.272 966.7276,688.053 1521.3436,533.25 753.743,-183.956 1304.825,-956.521 1231,-1729.625 -6.18,-97.474 -23.055,-193.831 -49.468,-287.469 596.765,852.162 907.621,1905.426 798.562,2951.438 -48.91,702.634 -283.963,1375.386 -654.562,1964.1561 954.856,-1361.0651 1150.688,-3243.6221 385,-4736.4691 -688.261,-1419.193 -2218.807,-2361.137 -3792.4996,-2357.187 z m -3114.40699,1197.218 c -5.878,4.442 -11.738,8.904 -17.593,13.375 5.853,-4.47 11.717,-8.935 17.593,-13.375 z m -53.937,41.406 c -11.664,9.102 -23.273,18.281 -34.844,27.5 11.568,-9.217 23.183,-18.4 34.844,-27.5 z m -34.844,27.5 c -5.529,4.406 -11.055,8.818 -16.562,13.25 5.513,-4.437 11.027,-8.839 16.562,-13.25 z m -52.562,42.532 c -5.742,4.723 -11.471,9.466 -17.188,14.218 5.711,-4.747 11.452,-9.5 17.188,-14.218 z m -51.594,43.125 c -4.929,4.184 -9.84,8.387 -14.7502,12.593 4.9112,-4.207 9.8202,-8.408 14.7502,-12.593 z m -53.6878,46.375 c -4.7574,4.176 -9.5108,8.365 -14.25,12.562 4.7435,-4.201 9.4883,-8.383 14.25,-12.562 z m -31.6562,28.031 c -5.3943,4.83 -10.755,9.673 -16.125,14.531 5.3624,-4.851 10.7384,-9.708 16.125,-14.531 z m -16.125,14.531 c -5.5584,5.028 -11.0928,10.067 -16.625,15.125 5.5331,-5.058 11.0658,-10.096 16.625,-15.125 z m -16.625,15.125 c -5.5288,5.055 -11.06,10.135 -16.5625,15.219 5.5067,-5.088 11.0294,-10.16 16.5625,-15.219 z m -33.06251,30.531 c -5.4717,5.11 -10.9299,10.236 -16.375,15.376 5.4535,-5.147 10.8948,-10.258 16.375,-15.376 z m -16.375,15.376 c -5.4652,5.158 -10.9055,10.312 -16.3437,15.5 5.4265,-5.177 10.8902,-10.354 16.3437,-15.5 z m -17.625,16.718 c -4.9868,4.761 -9.9736,9.558 -14.9375,14.344 4.9747,-4.796 9.9398,-9.573 14.9375,-14.344 z m -49.25,47.782 c -4.6534,4.589 -9.2738,9.2 -13.9063,13.812 4.6331,-4.612 9.2523,-9.223 13.9063,-13.812 z m -77.0625,78.031 c -5.2029,5.407 -10.388,10.845 -15.5625,16.281 5.1767,-5.438 10.3573,-10.872 15.5625,-16.281 z m -15.5625,16.281 c -4.249,4.464 -8.489,8.923 -12.7187,13.406 4.2277,-4.481 8.4717,-8.945 12.7187,-13.406 z m -27.0625,28.688 c -3.9039,4.179 -7.8004,8.366 -11.6875,12.562 3.8904,-4.2 7.7803,-8.379 11.6875,-12.562 z m -36.25,39.343 c -4.4213,4.858 -8.8511,9.714 -13.25,14.594 4.4038,-4.885 8.8237,-9.731 13.25,-14.594 z m -173.8438,203.938 c -3.3319,4.179 -6.6525,8.369 -9.9687,12.562 3.3143,-4.191 6.6386,-8.385 9.9687,-12.562 z m -119.2812,157.343 c -2.6707,3.709 -5.3101,7.438 -7.9688,11.157 2.661,-3.722 5.2958,-7.445 7.9688,-11.157 z m -18.6875,26.188 c -3.7545,5.303 -7.4888,10.614 -11.2187,15.938 3.7321,-5.327 7.462,-10.632 11.2187,-15.938 z m -29.7187,42.562 c -3.2722,4.752 -6.5287,9.515 -9.7813,14.282 3.2531,-4.768 6.5087,-9.529 9.7813,-14.282 z m 7426.8428,4966.3131 c -3.064,4.782 -6.136,9.542 -9.218,14.313 3.079,-4.767 6.157,-9.535 9.218,-14.313 z m -15.124,23.437 c -4.344,6.687 -8.716,13.368 -13.094,20.032 4.378,-6.665 8.75,-13.344 13.094,-20.032 z m -13.094,20.032 c -4.622,7.035 -9.277,14.052 -13.938,21.062 4.664,-7.014 9.313,-14.022 13.938,-21.062 z m -35.75,53.562 c -4.343,6.411 -8.688,12.83 -13.063,19.219 4.378,-6.394 8.717,-12.803 13.063,-19.219 z m -31.813,46.406 c -5.234,7.528 -10.502,15.036 -15.781,22.532 5.278,-7.495 10.548,-15.006 15.781,-22.532 z m -27.406,38.938 c -3.896,5.481 -7.799,10.943 -11.719,16.406 3.918,-5.46 7.825,-10.929 11.719,-16.406 z m -44.187,61.125 c -3.942,5.356 -7.88,10.723 -11.844,16.063 3.966,-5.342 7.901,-10.704 11.844,-16.063 z m -22.532,30.344 c -4.416,5.9 -8.836,11.808 -13.281,17.687 4.447,-5.882 8.863,-11.784 13.281,-17.687 z m -41.718,54.875 c -2.738,3.546 -5.471,7.086 -8.219,10.625 2.747,-3.538 5.482,-7.08 8.219,-10.625 z m -8.219,10.625 c -3.98,5.124 -7.967,10.236 -11.969,15.343 4.001,-5.106 7.99,-10.22 11.969,-15.343 z m -25.031,31.937 c -3.089,3.905 -6.181,7.824 -9.282,11.719 3.104,-3.899 6.19,-7.81 9.282,-11.719 z m -38.094,47.532 c -3.865,4.756 -7.742,9.508 -11.625,14.25 3.885,-4.744 7.758,-9.491 11.625,-14.25 z m -18.469,22.593 c -3.325,4.041 -6.661,8.065 -10,12.094 3.337,-4.028 6.677,-8.055 10,-12.094 z m -58.594,69.813 c -3.807,4.445 -7.645,8.881 -11.469,13.312 3.826,-4.432 7.661,-8.865 11.469,-13.312 z m -48.031,55.156 c -4.85,5.487 -9.686,10.974 -14.562,16.438 4.874,-5.462 9.714,-10.954 14.562,-16.438 z m -35.281,39.5 c -6.299,6.964 -12.628,13.918 -18.969,20.844 6.344,-6.93 12.666,-13.876 18.969,-20.844 z m -36.375,39.719 c -3.514,3.795 -7.036,7.591 -10.563,11.375 3.53,-3.787 7.046,-7.576 10.563,-11.375 z m -127.75,132.625 c -6.731,6.716 -13.478,13.419 -20.25,20.094 6.777,-6.68 13.514,-13.373 20.25,-20.094 z m -20.25,20.094 c -6.158,6.069 -12.34,12.12 -18.532,18.156 6.19,-6.034 12.375,-12.088 18.532,-18.156 z m -67.688,65.374 c -5.413,5.124 -10.843,10.247 -16.281,15.344 5.442,-5.101 10.864,-10.216 16.281,-15.344 z m -19.281,18.157 c -5.326,4.984 -10.65,9.947 -16,14.906 5.343,-4.953 10.68,-9.928 16,-14.906 z m -42.094,38.906 c -7.299,6.663 -14.627,13.29 -21.969,19.906 7.337,-6.611 14.675,-13.248 21.969,-19.906 z m -21.969,19.906 c -6.206,5.594 -12.419,11.16 -18.656,16.719 6.234,-5.557 12.452,-11.128 18.656,-16.719 z m -69.031,60.969 c -6.404,5.544 -12.815,11.085 -19.25,16.594 6.436,-5.51 12.845,-11.049 19.25,-16.594 z m -21.125,18.188 c -7.156,6.12 -14.337,12.236 -21.531,18.312 7.195,-6.077 14.373,-12.191 21.531,-18.312 z m -21.531,18.312 c -4.458,3.766 -8.934,7.501 -13.406,11.25 4.47,-3.747 8.95,-7.486 13.406,-11.25 z m -21.156,17.75 c -3.563,2.973 -7.116,5.944 -10.688,8.906 3.569,-2.959 7.128,-5.936 10.688,-8.906 z m -10.688,8.906 c -4.116,3.414 -8.247,6.82 -12.375,10.219 4.131,-3.402 8.256,-6.803 12.375,-10.219 z m -15.219,12.563 c -6.27,5.155 -12.546,10.284 -18.843,15.406 6.292,-5.118 12.578,-10.255 18.843,-15.406 z m -69.343,55.875 c -6.734,5.32 -13.487,10.624 -20.25,15.906 6.761,-5.281 13.518,-10.587 20.25,-15.906 z m -23.063,18.125 c -6.129,4.78 -12.284,9.564 -18.437,14.312 6.159,-4.752 12.303,-9.528 18.437,-14.312 z m -52.187,40.062 c -4.958,3.753 -9.903,7.518 -14.875,11.25 4.973,-3.733 9.917,-7.496 14.875,-11.25 z m -65.844,48.969 c -7.366,5.371 -14.727,10.705 -22.125,16.031 7.395,-5.324 14.762,-10.663 22.125,-16.031 z m -37.156,26.781 c -5.107,3.646 -10.222,7.282 -15.344,10.907 5.12,-3.623 10.239,-7.263 15.344,-10.907 z m -76.657,53.531 c -3.723,2.544 -7.456,5.093 -11.187,7.626 3.733,-2.534 7.462,-5.08 11.187,-7.626 z m -11.187,7.626 c -6.092,4.135 -12.2,8.269 -18.313,12.374 6.119,-4.109 12.215,-8.235 18.313,-12.374 z m -19.906,13.437 c -5.173,3.471 -10.344,6.925 -15.531,10.375 5.185,-3.448 10.36,-6.905 15.531,-10.375 z m -65.375,43.031 c -5.277,3.41 -10.553,6.832 -15.844,10.219 5.293,-3.389 10.565,-6.808 15.844,-10.219 z m -17.313,11.156 c -6.072,3.885 -12.128,7.739 -18.219,11.594 6.083,-3.849 12.155,-7.715 18.219,-11.594 z m -21.937,13.938 c -6.394,4.038 -12.805,8.057 -19.219,12.062 6.412,-4.004 12.827,-8.025 19.219,-12.062 z m -19.219,12.062 c -7.014,4.38 -14.025,8.754 -21.063,13.094 7.036,-4.339 14.052,-8.715 21.063,-13.094 z m -97.156,58.969 c -3.819,2.252 -7.643,4.51 -11.469,6.75 3.829,-2.242 7.647,-4.496 11.469,-6.75 z m -30.5,17.813 c -5.945,3.442 -11.915,6.867 -17.875,10.281 5.963,-3.416 11.927,-6.838 17.875,-10.281 z m -50.688,28.906 c -7.234,4.062 -14.493,8.104 -21.75,12.125 7.261,-4.023 14.512,-8.061 21.75,-12.125 z m -56.093,30.969 c -7.253,3.935 -14.538,7.855 -21.813,11.75 7.285,-3.9 14.55,-7.81 21.813,-11.75 z m -145.719,75.593 c -5.368,2.657 -10.746,5.272 -16.125,7.907 5.379,-2.635 10.756,-5.249 16.125,-7.907 z m -101.3436,48.532 c -6.277,2.907 -12.552,5.779 -18.844,8.656 6.289,-2.876 12.569,-5.75 18.844,-8.656 z m -125.031,55.5 c -6.016,2.556 -12.035,5.096 -18.063,7.625 6.033,-2.531 12.042,-5.067 18.063,-7.625 z m -127.719,51.844 c -6.752,2.614 -13.516,5.232 -20.281,7.812 6.765,-2.58 13.53,-5.198 20.281,-7.812 z m -21.469,8.25 c -7.16,2.727 -14.324,5.435 -21.5,8.124 7.176,-2.689 14.34,-5.397 21.5,-8.124 z m -21.5,8.124 c -10.937,4.099 -21.902,8.149 -32.875,12.157 10.979,-4.01 21.932,-8.056 32.875,-12.157 z m -220.5,75.688 c -5.829,1.821 -11.661,3.642 -17.5,5.438 5.84,-1.796 11.669,-3.617 17.5,-5.438 z m -108.968,32.406 c -6.885,1.944 -13.792,3.873 -20.688,5.782 6.895,-1.908 13.804,-3.839 20.688,-5.782 z m -20.688,5.782 c -7.054,1.951 -14.09,3.898 -21.156,5.812 7.057,-1.912 14.111,-3.863 21.156,-5.812 z m -36.688,9.968 c -4.791,1.278 -9.608,2.552 -14.406,3.813 4.803,-1.262 9.61,-2.533 14.406,-3.813 z m -28.781,7.563 c -2.744,0.71 -5.504,1.42 -8.25,2.125 2.753,-0.707 5.5,-1.413 8.25,-2.125 z m -23.719,6.062 c -6.524,1.648 -13.059,3.291 -19.593,4.907 6.54,-1.618 13.063,-3.258 19.593,-4.907 z m -22.406,5.594 c -6.712,1.655 -13.433,3.285 -20.156,4.906 6.725,-1.621 13.442,-3.251 20.156,-4.906 z m -89.968,21.094 c -6.15,1.368 -12.312,2.723 -18.469,4.062 6.162,-1.34 12.315,-2.693 18.469,-4.062 z m -45.219,9.781 c -5.934,1.249 -11.872,2.496 -17.813,3.719 5.942,-1.223 11.878,-2.47 17.813,-3.719 z m -45.344,9.281 c -6.852,1.361 -13.701,2.707 -20.563,4.031 6.861,-1.324 13.712,-2.671 20.563,-4.031 z m -22.719,4.438 c -7.581,1.459 -15.157,2.896 -22.75,4.312 7.595,-1.416 15.167,-2.852 22.75,-4.312 z m -22.75,4.312 c -6.377,1.19 -12.771,2.373 -19.156,3.531 6.386,-1.159 12.778,-2.341 19.156,-3.531 z m -22.812,4.188 c -7.604,1.373 -15.197,2.733 -22.813,4.062 7.613,-1.329 15.211,-2.69 22.813,-4.062 z m -22.813,4.062 c -5.899,1.03 -11.812,2.059 -17.719,3.063 5.91,-1.005 11.816,-2.032 17.719,-3.063 z m -47.25,7.969 c -7.147,1.16 -14.28,2.285 -21.437,3.406 7.149,-1.12 14.297,-2.248 21.437,-3.406 z m -21.437,3.406 c -7.648,1.198 -15.31,2.377 -22.969,3.532 7.66,-1.155 15.319,-2.333 22.969,-3.532 z"
             style="font-size:medium;font-style:normal;font-variant:normal;font-weight:normal;font-stretch:normal;text-indent:0;text-align:start;text-decoration:none;line-height:normal;letter-spacing:normal;word-spacing:normal;text-transform:none;direction:ltr;block-progression:tb;writing-mode:lr-tb;text-anchor:start;baseline-shift:baseline;color:#000000;fill:#ffffff;fill-opacity:1;fill-rule:nonzero;stroke:none;stroke-width:283.46456909;marker:none;visibility:visible;display:inline;overflow:visible;enable-background:accumulate;font-family:Sans;-inkscape-font-specification:Sans" />
          <path
             inkscape:connector-curvature="0"
             id="path4300"
             d="m 2083.1819,3591.5169 c -1461.93299,2.12 -2923.61699,729.89 -3731.094,1970.563 -891.0132,1284.557 -1014.1213,3050.642 -314,4453.7811 819.217,1749.927 2861.61401,2794.595 4759.75,2447.719 1960.6026,-295.446 3575.5966,-2037.695 3713.3746,-4017.0001 109.059,-1046.012 -201.797,-2099.276 -798.562,-2951.438 26.413,93.638 43.288,189.995 49.468,287.469 73.825,773.104 -477.257,1545.669 -1231,1729.625 -554.616,154.803 -1188.6686,-61.978 -1521.3436,-533.25 -378.122,-511.193 -362.651,-1249.016 -18.031,-1773.375 l 22.375,-35.375 1,2 c 362.205,-554.214 1089.7526,-863.476 1733.4996,-665 13.376,3.699 26.674,7.592 39.875,11.718 -370.339,-288.986 -787.265,-518.444 -1238.4366,-669.093 -471.801,-175.745 -969.359,-259.065 -1466.875,-258.344 z"
             style="fill:#4d4d4d;stroke:none;visibility:visible;display:inline" />
          <path
             sodipodi:nodetypes="ccccccccc"
             inkscape:connector-curvature="0"
             id="path6197"
             d="m -121.94309,669.29792 c -914.64841,32.43 -1846.47661,394.62698 -2465.87521,1082.81298 -275.6635,310.342 -470.4816,764.306 -325,1171.625 1.9159,133.163 45.093,288.779 62.854,430.564 112.3611,676.645 224.7223,1353.291 337.0834,2029.936 1766.12181,-767.053 3531.8778,-1534.947 5297.9998,-2302 -505.285,-658.371 -1010.715,-1316.629 -1516,-1975 -165.999,-167.30498 -444.48299,-311.61498 -707.89499,-365.26598 -222.801,-56.816 -453.684,-75.791 -683.167,-72.672 z"
             style="fill:#000000;stroke:#000000;stroke-width:21.24170494;stroke-miterlimit:4;stroke-opacity:1;stroke-dasharray:none;visibility:visible;display:inline" />
          <path
             inkscape:connector-curvature="0"
             d="m 83.837912,861.04792 c -23.926,0 -47.475,0.604 -70.563,1.813 -829.384002,20.156 -1807.847312,396.39598 -2101.749512,1237.34298 -167.4001,660.756 588.7332,1014.509 1134.46871,1005.188 845.8088,17.989 1824.9828,-343.006 2186.90679,-1161.094 C 1488.2219,1224.5079 672.41191,860.90692 83.837912,861.04792 z M 274.58791,1531.3609 c 75.954,-0.235 157.021,8.928 212.531,63.875 58.155,67.716 17.758,163.493 -26,227 -104.423,148.477 -256.132,255.561 -409.999998,347.625 -182.931002,104.653 -382.103002,187.611 -591.000002,227.375 -109.359,15.977 -230.71,31.93 -331.9998,-23.5 -19.3636,-11.495 -41.7575,-33.319 -46,-51.5 -34.5491,-77.342 13.9249,-160.629 57.9998,-223 133.515,-171.662 321.993,-290.093 512.406,-389.469 182.285,-89.064 377.215002,-159.985 580.594,-177.531 13.521,-0.456 27.403,-0.832 41.469,-0.875 z m 1230.09399,273.062 c -15.162,201.006 -88.114,401.261 -198.75,566.281 -410.95999,626.355 -1112.82799,1005.012 -1818.78099,1196.813 -541.97601,136.682 -1140.16471,180.896 -1672.50051,-8.125 66.0198,397.002 132.1058,794.028 197.9687,1191.094 1438.72881,-624.836 2877.39781,-1249.67 4315.2188,-1874.5 -274.498,-357.175 -548.963,-714.363 -823.156,-1071.563 z"
             style="font-size:medium;font-style:normal;font-variant:normal;font-weight:normal;font-stretch:normal;text-indent:0;text-align:start;text-decoration:none;line-height:normal;letter-spacing:normal;word-spacing:normal;text-transform:none;direction:ltr;block-progression:tb;writing-mode:lr-tb;text-anchor:start;baseline-shift:baseline;color:#000000;fill:#4d4d4d;fill-opacity:1;stroke:none;stroke-width:205.86276245;marker:none;visibility:visible;display:inline;overflow:visible;enable-background:accumulate;font-family:Sans;-inkscape-font-specification:Sans"
             id="path3171" />
          <path
             sodipodi:nodetypes="csssssssssssccsssssssssssccc"
             inkscape:connector-curvature="0"
             id="path3049"
             d="m 279.36891,-7458.4207 c -145.382,406.6921 -192.967998,793.8846 -20.594,1131.3437 172.375,337.4592 505.478,542.3993 945.21899,718.875 762.493,306.0015 1016.075,641.3456 1056.531,881.8126 40.457,240.4669 -104.752,531.7674 -464.593,812.625 -719.683,561.7151 -2162.74999,875.9832 -3193.969,352.5 -981.9368,-498.466 -2238.8721,-202.0729 -3196.1875,410.7502 -478.6577,306.411 -888.7774,700.077 -1147.8125,1161.281 -259.0351,461.2041 -359.7486,1008.30612 -177,1537.56312 211.7447,613.231 682.8069,981.624 1202.4688,1169.312 519.6618,187.688 1096.7188,234.151 1659.0937,287.62498 562.3749,53.474 1109.2957,112.732 1545.375,271.781 436.0793,159.049 755.62751,391.655 964.28151,850.219 L 64.962912,1848.4539 C -221.92109,1217.9639 -731.01109,845.32392 -1281.4121,644.57992 c -550.4015,-200.745 -1147.8044,-255.82 -1712.3438,-309.5 -564.5393,-53.681 -1096.9483,-107.207 -1494.125,-250.656999 -397.1766,-143.449 -650.3039,-337.334001 -794.8124,-755.843001 -113.5306,-328.79502 -61.0398,-652.21302 127.625,-988.12602 188.6647,-335.9121 520.7511,-665.9501 923.8124,-923.9681 806.1227,-516.037 1870.6812,-711.4012 2528.5,-377.469 1332.09981,676.221 2965.3378,317.487 3912.9068,-422.0938 473.784,-369.7903 809.939,-886.2282 714.25,-1455 -95.69,-568.7717 -595.761,-1044.1843 -1469.688,-1394.9062 -375.817,-150.8219 -540.49699,-290.9508 -596.37499,-400.3438 -55.878,-109.3929 -62.167,-270.7956 54.969,-598.4687 l 118.05599,-233.6385 z"
             style="font-size:medium;font-style:normal;font-variant:normal;font-weight:normal;font-stretch:normal;text-indent:0;text-align:start;text-decoration:none;line-height:normal;letter-spacing:normal;word-spacing:normal;text-transform:none;direction:ltr;block-progression:tb;writing-mode:lr-tb;text-anchor:start;baseline-shift:baseline;color:#000000;fill:#e3e3e3;fill-opacity:1;stroke:#000000;stroke-width:124.01574707;stroke-miterlimit:4;stroke-opacity:1;stroke-dasharray:none;marker:none;visibility:visible;display:inline;overflow:visible;enable-background:accumulate;font-family:Sans;-inkscape-font-specification:Sans" />
          <path
             inkscape:connector-curvature="0"
             id="path5265"
             d="m 236.35691,-6363.39 c 621.763,-268.3396 621.763,-268.3396 621.763,-268.3396"
             style="fill:none;stroke:#000000;stroke-width:124.01574707;stroke-linecap:butt;stroke-linejoin:miter;stroke-miterlimit:4;stroke-opacity:1;stroke-dasharray:none;display:inline" />
          <path
             inkscape:connector-curvature="0"
             id="path5269"
             d="m 1223.8019,-5572.9787 476.021,-569.7116"
             style="fill:none;stroke:#000000;stroke-width:124.01574707;stroke-linecap:butt;stroke-linejoin:miter;stroke-miterlimit:4;stroke-opacity:1;stroke-dasharray:none;display:inline"
             sodipodi:nodetypes="cc" />
          <path
             inkscape:connector-curvature="0"
             id="path5271"
             d="m 2091.8269,-4203.583 558.592,376.1871"
             style="fill:none;stroke:#000000;stroke-width:124.01574707;stroke-linecap:butt;stroke-linejoin:miter;stroke-miterlimit:4;stroke-opacity:1;stroke-dasharray:none;display:inline"
             sodipodi:nodetypes="cc" />
          <path
             inkscape:connector-curvature="0"
             id="path5273"
             d="m 2124.1009,-5015.9773 540.403,-385.3168"
             style="fill:none;stroke:#000000;stroke-width:124.01574707;stroke-linecap:butt;stroke-linejoin:miter;stroke-miterlimit:4;stroke-opacity:1;stroke-dasharray:none;display:inline"
             sodipodi:nodetypes="cc" />
          <path
             inkscape:connector-curvature="0"
             id="path5275"
             d="m 1097.3149,-3524.363 393.215,556.6218"
             style="fill:none;stroke:#000000;stroke-width:124.01574707;stroke-linecap:butt;stroke-linejoin:miter;stroke-miterlimit:4;stroke-opacity:1;stroke-dasharray:none;display:inline"
             sodipodi:nodetypes="cc" />
          <path
             inkscape:connector-curvature="0"
             id="path5277"
             d="m -241.41909,-3284.0292 127.625,693.757"
             style="fill:none;stroke:#000000;stroke-width:124.01574707;stroke-linecap:butt;stroke-linejoin:miter;stroke-miterlimit:4;stroke-opacity:1;stroke-dasharray:none;display:inline" />
          <path
             inkscape:connector-curvature="0"
             id="path5279"
             d="m -1720.5592,-2976.4202 309.7728,-560.5731"
             style="fill:none;stroke:#000000;stroke-width:124.01574707;stroke-linecap:butt;stroke-linejoin:miter;stroke-miterlimit:4;stroke-opacity:1;stroke-dasharray:none;display:inline"
             sodipodi:nodetypes="cc" />
          <path
             inkscape:connector-curvature="0"
             id="path5281"
             d="m -3238.969,-3732.3523 94.9006,661.0321"
             style="fill:none;stroke:#000000;stroke-width:124.01574707;stroke-linecap:butt;stroke-linejoin:miter;stroke-miterlimit:4;stroke-opacity:1;stroke-dasharray:none;display:inline" />
          <path
             sodipodi:nodetypes="cc"
             inkscape:connector-curvature="0"
             id="path5283"
             d="m -4534.8532,-2361.2022 -471.8395,-460.467"
             style="fill:none;stroke:#000000;stroke-width:124.01574707;stroke-linecap:butt;stroke-linejoin:miter;stroke-miterlimit:4;stroke-opacity:1;stroke-dasharray:none;display:inline" />
          <path
             inkscape:connector-curvature="0"
             id="path5285"
             d="m -5290.7857,-1408.9231 -634.8523,-166.895"
             style="fill:none;stroke:#000000;stroke-width:124.01574707;stroke-linecap:butt;stroke-linejoin:miter;stroke-miterlimit:4;stroke-opacity:1;stroke-dasharray:none;display:inline" />
          <path
             inkscape:connector-curvature="0"
             id="path5287"
             d="m -5784.9233,-185.03308 654.4869,-157.077"
             style="fill:none;stroke:#000000;stroke-width:124.01574707;stroke-linecap:butt;stroke-linejoin:miter;stroke-miterlimit:4;stroke-opacity:1;stroke-dasharray:none;display:inline" />
          <path
             inkscape:connector-curvature="0"
             id="path5289"
             d="m -4677.0859,713.06092 483.7043,-533.028"
             style="fill:none;stroke:#000000;stroke-width:124.01574707;stroke-linecap:butt;stroke-linejoin:miter;stroke-miterlimit:4;stroke-opacity:1;stroke-dasharray:none;display:inline"
             sodipodi:nodetypes="cc" />
          <path
             sodipodi:nodetypes="cc"
             inkscape:connector-curvature="0"
             id="path5291"
             d="m -3145.8943,302.93892 -43.9882,677.015"
             style="fill:none;stroke:#000000;stroke-width:124.01574707;stroke-linecap:butt;stroke-linejoin:miter;stroke-miterlimit:4;stroke-opacity:1;stroke-dasharray:none;display:inline" />
          <path
             sodipodi:nodetypes="cc"
             inkscape:connector-curvature="0"
             id="path5293"
             d="m -2090.3118,1102.3499 263.0451,-583.80898"
             style="fill:none;stroke:#000000;stroke-width:124.01574707;stroke-linecap:butt;stroke-linejoin:miter;stroke-miterlimit:4;stroke-opacity:1;stroke-dasharray:none;display:inline" />
          <path
             inkscape:connector-curvature="0"
             id="path5295"
             d="M -1130.9049,1427.1389 -676.65209,953.77492"
             style="fill:none;stroke:#000000;stroke-width:124.01574707;stroke-linecap:butt;stroke-linejoin:miter;stroke-miterlimit:4;stroke-opacity:1;stroke-dasharray:none;display:inline"
             sodipodi:nodetypes="cc" />
          <path
             d="m -2482.8909,-9052.763 c 299,-185 598,-369 898,-554 -175,-252 -350,-503 -525,-755 376,-48 751,-97 1127.00001,-146 16,-288 33,-577 50,-866 350.9998,100 700.9998,201 1051.9998,302 204,-249 408,-497 611,-745 232,222 464.99999,444 696.99999,666 336,-142 672,-283 1008,-425 51,285 102,570 153,854 379,4 757,7 1136,10 -143,271 -287,542 -430,813 319,147 638.9996,295 957.9996,442 -300,184 -598.9996,369 -898.9996,553 175,252 350,503 525,755 -376,48 -751,97 -1127,146 -17,288 -33,577 -50,866 -351,-100 -701,-201 -1052,-302 -204,249 -408,498 -611,746 -231.99999,-222 -464.99999,-445 -696.99999,-667 -335.9999977,142 -672,283 -1008,425 -51,-285 -102,-570 -153,-854 -378.99981,-4 -756.99981,-7 -1135.99981,-10 143,-271 287,-542 430,-813 -319,-147 -638,-294 -957,-441 z m -154,-2563 0,0 z m 7042.9994,4722 0,0 z"
             id="path159"
             inkscape:connector-curvature="0"
             style="fill:#fecb66;stroke:#000000;stroke-width:141.73228455;stroke-linejoin:round;stroke-miterlimit:99.90000153;stroke-opacity:1;stroke-dasharray:none;visibility:visible;display:inline" />
        </g>
      </g>
    </g>
    <flowRoot
       xml:space="preserve"
       id="flowRoot3079"
       style="font-size:40px;font-style:normal;font-variant:normal;font-weight:normal;font-stretch:normal;line-height:125%;letter-spacing:0px;word-spacing:0px;fill:#000000;fill-opacity:1;stroke:none;font-family:Courier 10 Pitch;-inkscape-font-specification:Courier 10 Pitch"
       transform="matrix(0.73759628,0,0,0.73759628,66.330804,947.32072)"><flowRegion
         id="flowRegion3081"><rect
           id="rect3083"
           width="276.5"
           height="74.5"
           x="-5.9999981"
           y="99"
           style="font-style:normal;font-variant:normal;font-weight:normal;font-stretch:normal;font-family:Courier 10 Pitch;-inkscape-font-specification:Courier 10 Pitch" /></flowRegion><flowPara
         id="flowPara3085">SDL edition</flowPara></flowRoot>  </g>
</svg>
