<?xml version="1.0" encoding="UTF-8" standalone="no"?>
<!-- Created with Inkscape (http://www.inkscape.org/) -->

<svg
   xmlns:dc="http://purl.org/dc/elements/1.1/"
   xmlns:cc="http://creativecommons.org/ns#"
   xmlns:rdf="http://www.w3.org/1999/02/22-rdf-syntax-ns#"
   xmlns:svg="http://www.w3.org/2000/svg"
   xmlns="http://www.w3.org/2000/svg"
   xmlns:xlink="http://www.w3.org/1999/xlink"
   xmlns:sodipodi="http://sodipodi.sourceforge.net/DTD/sodipodi-0.dtd"
   xmlns:inkscape="http://www.inkscape.org/namespaces/inkscape"
   width="64"
   height="64"
   id="svg3030"
   version="1.1"
   inkscape:version="0.48.4 r9939"
   sodipodi:docname="cuadro.svg"
   inkscape:export-filename="C:\Documents and Settings\Julio Enciso\Mis documentos\Proyecto Ukelele\Tablero\cuadro.png"
   inkscape:export-xdpi="90"
   inkscape:export-ydpi="90">
  <defs
     id="defs3032">
    <inkscape:perspective
       sodipodi:type="inkscape:persp3d"
       inkscape:vp_x="0.78424514 : 56.385169 : 1"
       inkscape:vp_y="0 : 439.37143 : 0"
       inkscape:vp_z="35.75293 : 54.659067 : 1"
       inkscape:persp3d-origin="15.343698 : 51.69854 : 1"
       id="perspective2986" />
    <filter
       inkscape:collect="always"
       id="filter3761">
      <feGaussianBlur
         inkscape:collect="always"
         stdDeviation="0.46477995"
         id="feGaussianBlur3763" />
    </filter>
  </defs>
  <sodipodi:namedview
     id="base"
     pagecolor="#ffffff"
     bordercolor="#666666"
     borderopacity="1.0"
     inkscape:pageopacity="0.0"
     inkscape:pageshadow="2"
     inkscape:zoom="2.4570313"
     inkscape:cx="93.30933"
     inkscape:cy="21.472286"
     inkscape:document-units="px"
     inkscape:current-layer="layer1"
     showgrid="false"
     units="px"
     inkscape:window-width="1440"
     inkscape:window-height="846"
     inkscape:window-x="-4"
     inkscape:window-y="-4"
     inkscape:window-maximized="1" />
  <metadata
     id="metadata3035">
    <rdf:RDF>
      <cc:Work
         rdf:about="">
        <dc:format>image/svg+xml</dc:format>
        <dc:type
           rdf:resource="http://purl.org/dc/dcmitype/StillImage" />
        <dc:title></dc:title>
      </cc:Work>
    </rdf:RDF>
  </metadata>
  <g
     inkscape:label="Capa 1"
     inkscape:groupmode="layer"
     id="layer1"
     transform="translate(0,-988.3609)">
    <rect
       style="fill:#84a1c4;fill-opacity:1;stroke:#000000;stroke-width:1.77777779;stroke-miterlimit:4;stroke-opacity:1;stroke-dasharray:none"
       id="rect3004"
       width="62.222221"
       height="62.222221"
       x="0.8888889"
       y="989.25104"
       inkscape:export-filename="C:\Documents and Settings\Julio Enciso\Escritorio\Bombardi. SDL edition\bild\CON_N.png"
       inkscape:export-xdpi="90"
       inkscape:export-ydpi="90" />
    <path
       sodipodi:type="arc"
       style="fill:none;stroke:#14f014;stroke-opacity:1;filter:url(#filter3761)"
       id="path2983"
       sodipodi:cx="-25.535715"
       sodipodi:cy="24.714285"
       sodipodi:rx="13.035714"
       sodipodi:ry="10.357142"
       d="m -12.500001,24.714285 c 0,5.720092 -5.836288,10.357142 -13.035714,10.357142 -7.199426,0 -13.035714,-4.63705 -13.035714,-10.357142 0,-5.720092 5.836288,-10.357143 13.035714,-10.357143 7.199426,0 13.035714,4.637051 13.035714,10.357143 z"
       transform="matrix(1.9178082,0,0,2.4137932,73.46944,877.57069)"
       inkscape:export-filename="/home/daisy/Escritorio/Bombardi. C++ edition/bild/U.png"
       inkscape:export-xdpi="88"
       inkscape:export-ydpi="88" />
    <path
       style="fill:#ffffff;fill-opacity:1;stroke:#000000;stroke-width:0.96969986;stroke-linecap:square;stroke-opacity:1"
       d="m -31.533941,961.05645 c 7.605141,-5.414 25.3264475,14.5855 25.3264475,14.5855 0,0 -17.7213065,19.9994 -25.3264475,14.5854 -7.605139,-5.4134 -7.605139,-23.7575 0,-29.1709 z"
       id="rect3770"
       inkscape:connector-curvature="0"
       sodipodi:nodetypes="zczz" />
    <g
       transform="matrix(0.13546668,0,0,0.13546667,7.9999953,901.80108)"
       id="g2995"
       inkscape:export-filename="C:\Documents and Settings\Julio Enciso\Escritorio\Bombardi. SDL edition\bild\CON_N.png"
       inkscape:export-xdpi="90"
       inkscape:export-ydpi="90">
      <path
         style="fill:#131415;stroke:none"
         d="m 35.433071,880.51046 283.464569,0 0,-10.62992 -283.464569,0 0,10.62992 z"
         id="path560"
         inkscape:connector-curvature="0" />
      <path
         style="fill:#131415;stroke:none"
         d="m 53.149641,892.91204 -26.574803,0 L 3.435318e-5,875.12556 26.574838,857.47897 l 26.574803,0 0,17.64659 0,17.78648 z"
         id="path562"
         inkscape:connector-curvature="0" />
      <path
         style="fill:#131415;stroke:none"
         d="m 150.06243,902.3543 -11.04602,-27.39052 11.06923,-26.90388 27.08479,-11.21781 27.09785,11.19466 10.88829,26.89454 -10.91143,27.39988 -26.79137,10.87932 -27.3914,-10.85624 z"
         id="path564"
         inkscape:connector-curvature="0" />
      <use
         height="354.33069"
         width="354.33069"
         transform="matrix(-1,0,0,1,354.33075,0)"
         id="use7716"
         xlink:href="#path562"
         y="0"
         x="0" />
      <use
         height="354.33069"
         width="354.33069"
         transform="matrix(0,1,-1,0,1052.3609,698.03012)"
         id="use7718"
         xlink:href="#path562"
         y="0"
         x="0" />
      <use
         height="354.33069"
         width="354.33069"
         transform="matrix(1,0,0,-1,0,1750.391)"
         id="use7720"
         xlink:href="#use7718"
         y="0"
         x="0" />
      <use
         height="354.33069"
         width="354.33069"
         transform="matrix(0,1,-1,0,1052.3609,698.03014)"
         id="use7741"
         xlink:href="#path560"
         y="0"
         x="0" />
      <use
         height="354.33069"
         width="354.33069"
         transform="matrix(0.70710678,-0.70710678,0.70710678,0.70710678,-566.96614,381.61367)"
         id="use7743"
         xlink:href="#path560"
         y="0"
         x="0" />
      <use
         height="354.33069"
         width="354.33069"
         transform="matrix(0.70710678,-0.70710678,0.70710678,0.70710678,-566.96614,381.61367)"
         id="use7745"
         xlink:href="#path562"
         y="0"
         x="0" />
      <use
         height="354.33069"
         width="354.33069"
         transform="matrix(0.70710678,-0.70710678,0.70710678,0.70710678,-566.96614,381.61367)"
         id="use7747"
         xlink:href="#use7716"
         y="0"
         x="0" />
      <use
         height="354.33069"
         width="354.33069"
         transform="matrix(0.70710678,0.70710678,0.70710678,-0.70710678,-566.86722,1368.7773)"
         id="use7755"
         xlink:href="#path560"
         y="0"
         x="0" />
      <use
         height="354.33069"
         width="354.33069"
         transform="matrix(0.70710678,0.70710678,0.70710678,-0.70710678,-566.86722,1368.7773)"
         id="use7757"
         xlink:href="#path562"
         y="0"
         x="0" />
      <use
         height="354.33069"
         width="354.33069"
         transform="matrix(0.70710678,0.70710678,0.70710678,-0.70710678,-566.86722,1368.7773)"
         id="use7759"
         xlink:href="#use7716"
         y="0"
         x="0" />
    </g>
    <g
       style="display:inline"
       id="g5189"
       transform="matrix(0.124155,0,0,0.12351685,-234.12774,980.30922)"
       inkscape:export-filename="C:\Documents and Settings\Julio Enciso\Escritorio\Bombardi. SDL edition\bild\CON_B.png"
       inkscape:export-xdpi="90"
       inkscape:export-ydpi="90">
      <path
         style="fill:#728eb1;fill-opacity:1;stroke:#000000;stroke-width:11.43002415;stroke-miterlimit:4;stroke-opacity:1;stroke-dasharray:none"
         d="m 2940.9449,172.24906 141.7323,0 100.5842,100.58414 0,141.73231 -100.5842,100.5842 -141.7323,0 -100.5842,-100.5842 0,-141.73231 z"
         id="path3143"
         inkscape:connector-curvature="0"
         sodipodi:nodetypes="ccccccccc" />
      <g
         transform="matrix(0.48862947,0,0,0.4730401,2927.2745,5.3241555)"
         id="g3145">
        <path
           inkscape:connector-curvature="0"
           id="path3147"
           d="m 99.632725,841.17985 c 31.117785,-46.22721 93.139725,-69.45117 148.110015,-55.72127 57.76829,12.75196 102.83351,64.98703 105.82067,122.5003 4.61195,57.33675 -32.91383,114.94642 -88.55457,134.85572 -55.80429,22.0357 -124.71796,3.1013 -160.56608,-43.90651 C 68.363242,954.13758 66.292389,887.80436 99.632725,841.17985 z"
           style="fill:#000000;stroke:#000000;stroke-width:0.77376699;stroke-opacity:1;visibility:visible;display:inline" />
        <path
           inkscape:connector-curvature="0"
           id="path3149"
           d="m 229.85347,793.88781 c -0.67365,0.002 -1.3476,0.01 -2.02174,0.0247 -23.27785,0.20759 -46.35587,7.44196 -65.85185,20.26675 -5.71848,3.66358 -11.102,7.81026 -16.11409,12.3655 21.13546,-16.15454 47.62541,-25.13197 74.11833,-25.17084 13.41688,-0.0197 26.83489,2.25314 39.5583,7.04712 12.16708,4.10942 23.41063,10.36859 33.39784,18.25158 -0.356,-0.11255 -0.71462,-0.21875 -1.07534,-0.31965 -17.3604,-5.41404 -36.98072,3.02203 -46.74857,18.13992 l -0.027,-0.0545 -0.6034,0.96496 c -9.29362,14.30351 -9.71081,34.4299 0.48626,48.37427 8.97152,12.85539 26.07046,18.76876 41.0272,14.54603 20.32674,-5.01796 35.18818,-26.09205 33.19728,-47.18085 -0.16666,-2.6589 -0.62174,-5.28733 -1.33404,-7.8416 16.09341,23.24534 24.47649,51.97636 21.53542,80.50956 -1.319,19.16651 -7.65784,37.51789 -17.65206,53.57841 25.75031,-37.12724 31.03145,-88.47978 10.38258,-129.20178 -18.56085,-38.71286 -59.83621,-64.40729 -102.27515,-64.29954 z m -83.98851,32.65781 c -0.15852,0.12117 -0.31655,0.24288 -0.47445,0.36484 0.15785,-0.12193 0.31598,-0.24373 0.47445,-0.36484 z m -1.45456,1.12948 c -0.31455,0.24828 -0.62762,0.49867 -0.93967,0.75014 0.31197,-0.25142 0.6252,-0.50191 0.93967,-0.75014 z m -0.93967,0.75014 c -0.1491,0.12019 -0.29812,0.24054 -0.44664,0.36144 0.14868,-0.12104 0.29738,-0.24111 0.44664,-0.36144 z m -1.41747,1.16019 c -0.15485,0.12884 -0.30935,0.25822 -0.46353,0.38784 0.15402,-0.12949 0.30884,-0.25914 0.46353,-0.38784 z m -1.39138,1.17637 c -0.13292,0.11413 -0.26536,0.22878 -0.39778,0.34351 0.13245,-0.11475 0.26483,-0.22935 0.39778,-0.34351 z m -1.44784,1.26502 c -0.12829,0.11392 -0.25648,0.22818 -0.38429,0.34267 0.12792,-0.1146 0.25588,-0.22867 0.38429,-0.34267 z m -0.85369,0.76463 c -0.14548,0.13176 -0.29004,0.26386 -0.43486,0.39638 0.14461,-0.13232 0.28959,-0.26481 0.43486,-0.39638 z m -0.43486,0.39638 c -0.1499,0.13716 -0.29915,0.27461 -0.44834,0.41258 0.14922,-0.13797 0.29842,-0.2754 0.44834,-0.41258 z m -0.44834,0.41258 c -0.1491,0.13789 -0.29826,0.27647 -0.44665,0.41515 0.1485,-0.13879 0.29744,-0.27715 0.44665,-0.41515 z m -0.89162,0.83283 c -0.14756,0.13939 -0.29475,0.27922 -0.44159,0.41943 0.14706,-0.1404 0.2938,-0.27982 0.44159,-0.41943 z m -0.44159,0.41943 c -0.14739,0.1407 -0.2941,0.28129 -0.44076,0.42281 0.14634,-0.14122 0.29369,-0.28244 0.44076,-0.42281 z m -0.47531,0.45603 c -0.13448,0.12987 -0.26897,0.26073 -0.40283,0.39128 0.13416,-0.13083 0.26805,-0.26113 0.40283,-0.39128 z m -1.32816,1.3034 c -0.12549,0.12518 -0.2501,0.25096 -0.37502,0.37677 0.12494,-0.12581 0.24951,-0.25159 0.37502,-0.37677 z m -2.0782,2.12854 c -0.14031,0.14749 -0.28014,0.29583 -0.41969,0.44411 0.13961,-0.14833 0.27931,-0.29656 0.41969,-0.44411 z m -0.41969,0.44411 c -0.11458,0.12177 -0.22893,0.24341 -0.34299,0.36569 0.11401,-0.12223 0.22846,-0.244 0.34299,-0.36569 z m -0.72981,0.78256 c -0.10528,0.11399 -0.21036,0.22821 -0.31519,0.34266 0.10492,-0.11456 0.20982,-0.22856 0.31519,-0.34266 z m -0.97758,1.0732 c -0.11924,0.13252 -0.2387,0.26498 -0.35733,0.3981 0.11876,-0.13326 0.23796,-0.26545 0.35733,-0.3981 z m -4.68818,5.56304 c -0.0899,0.11399 -0.1794,0.22829 -0.26883,0.34266 0.0894,-0.11432 0.17903,-0.22872 0.26883,-0.34266 z m -3.21674,4.29201 c -0.072,0.10118 -0.1432,0.2029 -0.2149,0.30434 0.0718,-0.10153 0.14281,-0.20308 0.2149,-0.30434 z m -0.50396,0.71436 c -0.10125,0.14466 -0.20196,0.28953 -0.30255,0.43476 0.10065,-0.14531 0.20124,-0.29002 0.30255,-0.43476 z m -0.80145,1.16101 c -0.0882,0.12962 -0.17606,0.25955 -0.26378,0.38958 0.0877,-0.13006 0.17553,-0.25993 0.26378,-0.38958 z m 200.28517,135.47149 c -0.0826,0.13044 -0.16548,0.26028 -0.24859,0.39043 0.083,-0.13004 0.16604,-0.2601 0.24859,-0.39043 z m -0.40786,0.63931 c -0.11715,0.18241 -0.23505,0.36465 -0.35312,0.54644 0.11807,-0.18181 0.23597,-0.364 0.35312,-0.54644 z m -0.35312,0.54644 c -0.12464,0.1919 -0.25018,0.38331 -0.37587,0.57453 0.12577,-0.19133 0.25115,-0.3825 0.37587,-0.57453 z m -0.9641,1.46106 c -0.11712,0.17488 -0.23429,0.34998 -0.35227,0.52426 0.11806,-0.17441 0.23507,-0.34924 0.35227,-0.52426 z m -0.85792,1.26587 c -0.14115,0.20535 -0.28322,0.41015 -0.42558,0.61463 0.14234,-0.20445 0.28446,-0.40933 0.42558,-0.61463 z m -0.73908,1.06215 c -0.10506,0.14952 -0.21032,0.29851 -0.31603,0.44753 0.10566,-0.14894 0.21102,-0.29812 0.31603,-0.44753 z m -1.19162,1.66738 c -0.10631,0.1461 -0.21251,0.2925 -0.31941,0.43817 0.10696,-0.14572 0.21307,-0.29199 0.31941,-0.43817 z m -0.60764,0.82772 c -0.11909,0.16094 -0.23829,0.3221 -0.35816,0.48247 0.11993,-0.16045 0.23902,-0.32144 0.35816,-0.48247 z m -1.12504,1.49689 c -0.0738,0.0967 -0.14754,0.19329 -0.22165,0.28983 0.0741,-0.0965 0.14784,-0.19313 0.22165,-0.28983 z m -0.22165,0.28983 c -0.10733,0.13977 -0.21485,0.27922 -0.32277,0.41853 0.10789,-0.13929 0.21547,-0.27879 0.32277,-0.41853 z m -0.67503,0.87118 c -0.0833,0.10652 -0.16668,0.21342 -0.25031,0.31967 0.0837,-0.10636 0.16693,-0.21304 0.25031,-0.31967 z m -1.02731,1.29658 c -0.10423,0.12973 -0.20878,0.25936 -0.3135,0.38867 0.10477,-0.12936 0.20922,-0.25885 0.3135,-0.38867 z m -0.49806,0.61627 c -0.0897,0.1103 -0.17963,0.22 -0.26968,0.3299 0.09,-0.1099 0.18006,-0.2197 0.26968,-0.3299 z m -1.58015,1.9044 c -0.10267,0.1212 -0.20617,0.2422 -0.30929,0.3631 0.10318,-0.1209 0.2066,-0.2418 0.30929,-0.3631 z m -1.29529,1.5045 c -0.13079,0.1497 -0.26121,0.2994 -0.3927,0.4484 0.13144,-0.149 0.26196,-0.2988 0.3927,-0.4484 z m -0.95145,1.0775 c -0.16987,0.19 -0.34055,0.3797 -0.51155,0.5686 0.17109,-0.189 0.34158,-0.3785 0.51155,-0.5686 z m -0.98095,1.0835 c -0.0948,0.1035 -0.18974,0.207 -0.28486,0.3103 0.0952,-0.1033 0.19002,-0.2067 0.28486,-0.3103 z m -3.44513,3.6177 c -0.18152,0.1832 -0.36347,0.3661 -0.54609,0.5482 0.18276,-0.1823 0.36444,-0.3648 0.54609,-0.5482 z m -0.54609,0.5482 c -0.16607,0.1655 -0.33279,0.3306 -0.49977,0.4952 0.16693,-0.1646 0.33373,-0.3297 0.49977,-0.4952 z m -1.8254,1.7832 c -0.14597,0.1398 -0.29241,0.2796 -0.43906,0.4186 0.14676,-0.1392 0.29298,-0.2787 0.43906,-0.4186 z m -0.51996,0.4953 c -0.14363,0.136 -0.28721,0.2714 -0.43148,0.4066 0.14408,-0.1351 0.28801,-0.2708 0.43148,-0.4066 z m -1.13518,1.0613 c -0.19684,0.1818 -0.39446,0.3625 -0.59246,0.543 0.19787,-0.1803 0.39576,-0.3614 0.59246,-0.543 z m -0.59246,0.543 c -0.16736,0.1526 -0.33491,0.3044 -0.50311,0.4561 0.16812,-0.1516 0.33581,-0.3036 0.50311,-0.4561 z m -1.86161,1.6631 c -0.1727,0.1513 -0.34559,0.3024 -0.51912,0.4527 0.17356,-0.1503 0.3464,-0.3014 0.51912,-0.4527 z m -0.56969,0.4962 c -0.19298,0.1669 -0.38664,0.3337 -0.58064,0.4995 0.19403,-0.1658 0.38761,-0.3326 0.58064,-0.4995 z m -0.58064,0.4995 c -0.12022,0.1027 -0.24093,0.2046 -0.36153,0.3069 0.12055,-0.1023 0.24136,-0.2043 0.36153,-0.3069 z m -0.57053,0.4842 c -0.0961,0.081 -0.1919,0.1621 -0.28823,0.2429 0.0962,-0.081 0.19222,-0.1619 0.28823,-0.2429 z m -0.28823,0.2429 c -0.111,0.093 -0.2224,0.186 -0.33373,0.2788 0.11141,-0.093 0.22265,-0.1856 0.33373,-0.2788 z m -0.41042,0.3427 c -0.16909,0.1406 -0.33834,0.2805 -0.50816,0.4202 0.16968,-0.1396 0.3392,-0.2797 0.50816,-0.4202 z m -1.87003,1.5242 c -0.1816,0.1451 -0.36371,0.2898 -0.54609,0.4338 0.18232,-0.144 0.36455,-0.2888 0.54609,-0.4338 z m -0.62195,0.4944 c -0.16529,0.1304 -0.33128,0.2609 -0.49721,0.3904 0.1661,-0.1297 0.33179,-0.2599 0.49721,-0.3904 z m -1.40737,1.0928 c -0.13371,0.1024 -0.26706,0.2051 -0.40115,0.3069 0.13412,-0.1019 0.26744,-0.2045 0.40115,-0.3069 z m -1.77566,1.3358 c -0.19865,0.1465 -0.39716,0.292 -0.59667,0.4373 0.19943,-0.1453 0.3981,-0.2909 0.59667,-0.4373 z m -1.00202,0.7305 c -0.13772,0.1 -0.27566,0.1986 -0.41379,0.2975 0.13807,-0.099 0.27612,-0.1981 0.41379,-0.2975 z m -2.06726,1.4602 c -0.1004,0.069 -0.20108,0.1389 -0.30169,0.208 0.10067,-0.069 0.20123,-0.1385 0.30169,-0.208 z m -0.30169,0.208 c -0.16429,0.1128 -0.32901,0.2256 -0.49386,0.3376 0.16501,-0.1121 0.32941,-0.2247 0.49386,-0.3376 z m -0.53682,0.3666 c -0.13951,0.095 -0.27896,0.1889 -0.41884,0.283 0.13983,-0.094 0.27939,-0.1884 0.41884,-0.283 z m -1.76302,1.1738 c -0.14231,0.093 -0.28459,0.1863 -0.42727,0.2787 0.14274,-0.092 0.28491,-0.1857 0.42727,-0.2787 z m -0.46689,0.3043 c -0.16375,0.106 -0.32706,0.2111 -0.49133,0.3163 0.16405,-0.105 0.3278,-0.2105 0.49133,-0.3163 z m -0.59159,0.3802 c -0.17243,0.1101 -0.34532,0.2198 -0.51829,0.329 0.17291,-0.1092 0.34591,-0.2189 0.51829,-0.329 z m -0.51829,0.329 c -0.18916,0.1195 -0.37823,0.2388 -0.56803,0.3572 0.18975,-0.1184 0.37895,-0.2377 0.56803,-0.3572 z m -2.62008,1.6086 c -0.10299,0.061 -0.20612,0.123 -0.3093,0.1841 0.10326,-0.061 0.20623,-0.1226 0.3093,-0.1841 z m -0.82252,0.4859 c -0.16032,0.094 -0.32132,0.1873 -0.48205,0.2804 0.16081,-0.093 0.32165,-0.1865 0.48205,-0.2804 z m -1.36694,0.7885 c -0.19508,0.1108 -0.39084,0.2211 -0.58655,0.3307 0.19582,-0.1097 0.39136,-0.2198 0.58655,-0.3307 z m -1.5127,0.8448 c -0.1956,0.1073 -0.39206,0.2142 -0.58825,0.3205 0.19646,-0.1064 0.39238,-0.2131 0.58825,-0.3205 z m -3.92971,2.062 c -0.14477,0.072 -0.2898,0.1438 -0.43486,0.2157 0.14506,-0.072 0.29007,-0.1432 0.43486,-0.2157 z m -2.73301,1.3239 c -0.16928,0.079 -0.3385,0.1576 -0.50818,0.2361 0.1696,-0.078 0.33896,-0.1569 0.50818,-0.2361 z m -3.3718,1.5139 c -0.16224,0.07 -0.32456,0.139 -0.48712,0.208 0.16269,-0.069 0.32474,-0.1382 0.48712,-0.208 z m -3.4443,1.4142 c -0.18208,0.071 -0.36449,0.1427 -0.54693,0.2131 0.18244,-0.07 0.36487,-0.1418 0.54693,-0.2131 z m -0.57897,0.225 c -0.19309,0.074 -0.38628,0.1483 -0.5798,0.2216 0.19352,-0.073 0.38671,-0.1472 0.5798,-0.2216 z m -0.5798,0.2216 c -0.29495,0.1119 -0.59065,0.2223 -0.88657,0.3317 0.29608,-0.1094 0.59146,-0.2198 0.88657,-0.3317 z m -5.94639,2.0647 c -0.1572,0.05 -0.31447,0.099 -0.47194,0.1483 0.1575,-0.049 0.31469,-0.099 0.47194,-0.1483 z m -2.93862,0.8839 c -0.18567,0.053 -0.37194,0.1057 -0.55791,0.1578 0.18594,-0.052 0.37226,-0.1048 0.55791,-0.1578 z m -0.55791,0.1578 c -0.19023,0.053 -0.37997,0.1063 -0.57053,0.1585 0.19031,-0.052 0.38054,-0.1054 0.57053,-0.1585 z m -0.98939,0.2719 c -0.1292,0.035 -0.25911,0.07 -0.3885,0.104 0.12953,-0.034 0.25916,-0.069 0.3885,-0.104 z m -0.77616,0.2063 c -0.074,0.019 -0.14843,0.039 -0.22248,0.058 0.0742,-0.019 0.14832,-0.039 0.22248,-0.058 z m -0.63965,0.1653 c -0.17594,0.045 -0.35217,0.09 -0.52838,0.1339 0.17637,-0.044 0.35228,-0.089 0.52838,-0.1339 z m -0.60424,0.1526 c -0.181,0.045 -0.36226,0.09 -0.54356,0.1339 0.18136,-0.044 0.3625,-0.089 0.54356,-0.1339 z m -2.42623,0.5754 c -0.16585,0.037 -0.33203,0.074 -0.49807,0.1108 0.16618,-0.036 0.33211,-0.073 0.49807,-0.1108 z m -1.21946,0.2668 c -0.16002,0.034 -0.32016,0.068 -0.48037,0.1015 0.16024,-0.033 0.32032,-0.067 0.48037,-0.1015 z m -1.22282,0.2532 c -0.18478,0.037 -0.36949,0.074 -0.55454,0.11 0.18503,-0.036 0.36978,-0.073 0.55454,-0.11 z m -0.61268,0.1211 c -0.20444,0.04 -0.40875,0.079 -0.61352,0.1176 0.20482,-0.039 0.40902,-0.078 0.61352,-0.1176 z m -0.61352,0.1176 c -0.17197,0.033 -0.3444,0.065 -0.51659,0.096 0.17222,-0.032 0.34459,-0.064 0.51659,-0.096 z m -0.61518,0.1142 c -0.20507,0.037 -0.40983,0.075 -0.61522,0.1108 0.20531,-0.036 0.41021,-0.073 0.61522,-0.1108 z m -0.61522,0.1108 c -0.15908,0.028 -0.31854,0.056 -0.47784,0.084 0.15938,-0.027 0.31865,-0.055 0.47784,-0.084 z m -1.27423,0.2174 c -0.19273,0.032 -0.38509,0.062 -0.5781,0.093 0.19279,-0.031 0.38555,-0.061 0.5781,-0.093 z m -0.5781,0.093 c -0.20625,0.033 -0.41288,0.065 -0.61942,0.096 0.20657,-0.032 0.41311,-0.064 0.61942,-0.096 z"
           style="font-size:medium;font-style:normal;font-variant:normal;font-weight:normal;font-stretch:normal;text-indent:0;text-align:start;text-decoration:none;line-height:normal;letter-spacing:normal;word-spacing:normal;text-transform:none;direction:ltr;block-progression:tb;writing-mode:lr-tb;text-anchor:start;baseline-shift:baseline;color:#000000;fill:#ffffff;fill-opacity:1;fill-rule:nonzero;stroke:none;stroke-width:283.46456909;marker:none;visibility:visible;display:inline;overflow:visible;enable-background:accumulate;font-family:Sans;-inkscape-font-specification:Sans" />
        <path
           inkscape:connector-curvature="0"
           id="path3151"
           d="m 219.98412,801.37393 c -39.42503,0.0578 -78.84334,19.90999 -100.61918,53.75317 -24.028607,35.04025 -27.348555,83.21566 -8.46787,121.4906 22.09244,47.7346 77.17127,76.2312 128.35971,66.7691 52.87302,-8.0592 96.42575,-55.58443 100.14132,-109.57608 2.94107,-28.5332 -5.44201,-57.26422 -21.53542,-80.50956 0.7123,2.55427 1.16738,5.1827 1.33404,7.8416 1.9909,21.0888 -12.87054,42.16289 -33.19728,47.18085 -14.95674,4.22273 -32.05571,-1.69064 -41.0272,-14.54603 -10.1971,-13.94437 -9.77988,-34.07076 -0.48626,-48.37427 l 0.6034,-0.96496 0.027,0.0545 c 9.76785,-15.11789 29.38817,-23.55396 46.74857,-18.13992 0.36072,0.1009 0.71934,0.2071 1.07534,0.31965 -9.98721,-7.88299 -21.23076,-14.14216 -33.39784,-18.25158 -12.72341,-4.79398 -26.14142,-7.06679 -39.5583,-7.04712 z"
           style="fill:#4d4d4d;stroke:none;visibility:visible;display:inline" />
        <path
           sodipodi:nodetypes="ccccccccc"
           inkscape:connector-curvature="0"
           id="path3153"
           d="m 160.51688,721.6614 c -24.666,0.88463 -49.7953,10.76467 -66.499081,29.53706 -7.434022,8.46554 -12.687826,20.8488 -8.764516,31.95968 0.05167,3.63243 1.216057,7.87734 1.695031,11.74496 3.030125,18.45758 6.060252,36.91518 9.090377,55.37276 47.628319,-20.92374 95.246759,-41.87041 142.875079,-62.79414 -13.62639,-17.9591 -27.2567,-35.91511 -40.88309,-53.87421 -4.47662,-4.56376 -11.9867,-8.50026 -19.09033,-9.96376 -6.00844,-1.54983 -12.23483,-2.06743 -18.42347,-1.98235 z"
           style="fill:#000000;stroke:#000000;stroke-width:0.57612741;stroke-miterlimit:4;stroke-opacity:1;stroke-dasharray:none;visibility:visible;display:inline" />
        <path
           inkscape:connector-curvature="0"
           d="m 166.06633,726.89197 c -0.64523,0 -1.28029,0.0165 -1.90293,0.0495 -22.36661,0.54982 -48.75355,10.81292 -56.67943,33.75234 -4.5144,18.02416 15.8768,27.67386 30.59406,27.4196 22.80955,0.4907 49.21566,-9.35655 58.97593,-31.67242 6.88543,-19.63449 -15.11512,-29.55282 -30.98763,-29.54898 z m 5.1441,18.28486 c 2.0483,-0.006 4.2345,0.24353 5.73148,1.74238 1.56831,1.84716 0.47889,4.45978 -0.70117,6.19213 -2.81605,4.05016 -6.9073,6.97121 -11.05677,9.48254 -4.93323,2.85473 -10.30445,5.11767 -15.93793,6.20235 -2.94917,0.43582 -6.22173,0.87099 -8.95329,-0.64103 -0.52219,-0.31356 -1.1261,-0.90888 -1.24051,-1.40482 -0.93171,-2.10974 0.37552,-4.38165 1.56412,-6.08302 3.6006,-4.6826 8.68342,-7.91318 13.81843,-10.62396 4.91582,-2.4295 10.17264,-4.36409 15.65731,-4.84271 0.36463,-0.0124 0.739,-0.0227 1.11833,-0.0239 z m 33.17285,7.4486 c -0.40888,5.48306 -2.37624,10.94563 -5.35984,15.44706 -11.08266,17.08576 -30.01045,27.4148 -49.04841,32.64676 -14.61587,3.72842 -30.74767,4.9345 -45.10356,-0.22163 1.7804,10.82945 3.5626,21.65956 5.33877,32.49075 38.79926,-17.04432 77.59691,-34.08859 116.3717,-51.13276 -7.40259,-9.74304 -14.80429,-19.48645 -22.19866,-29.23018 z"
           style="font-size:medium;font-style:normal;font-variant:normal;font-weight:normal;font-stretch:normal;text-indent:0;text-align:start;text-decoration:none;line-height:normal;letter-spacing:normal;word-spacing:normal;text-transform:none;direction:ltr;block-progression:tb;writing-mode:lr-tb;text-anchor:start;baseline-shift:baseline;color:#000000;fill:#4d4d4d;fill-opacity:1;stroke:none;stroke-width:205.86276245;marker:none;visibility:visible;display:inline;overflow:visible;enable-background:accumulate;font-family:Sans;-inkscape-font-specification:Sans"
           id="path3155" />
        <path
           sodipodi:nodetypes="csssssssssssccsssssssssssccc"
           inkscape:connector-curvature="0"
           id="path3157"
           d="m 171.33936,499.95284 c -3.92063,11.09378 -5.20391,21.65565 -0.55538,30.86089 4.64857,9.20524 13.6316,14.79561 25.49042,19.60953 20.56272,8.34713 27.40125,17.49467 28.49226,24.05415 1.09103,6.55948 -2.82493,14.5056 -12.52903,22.16685 -19.40822,15.32251 -58.32447,23.89514 -86.13412,9.61552 -26.480617,-13.59719 -60.377322,-5.51216 -86.193955,11.20448 -12.908316,8.35831 -23.968317,19.09676 -30.9539086,31.67752 -6.9855912,12.58076 -9.70160669,27.50465 -4.77329,41.94177 5.7102761,16.72776 18.4137586,26.77682 32.4278656,31.89658 14.014105,5.11977 29.576028,6.38719 44.742008,7.84586 15.16598,1.45867 29.9152,3.07511 41.67527,7.41366 11.76007,4.33856 20.37757,10.6836 26.00449,23.19235 l 16.52532,-7.60549 c -7.73661,-17.19855 -21.46562,-27.36346 -36.30869,-32.83937 -14.84308,-5.47594 -30.953689,-6.97828 -46.178041,-8.44256 -15.224349,-1.46432 -29.582216,-2.9244 -40.293174,-6.83744 -10.710956,-3.91302 -17.537227,-9.20183 -21.434294,-20.61795 -3.061664,-8.9689 -1.646106,-17.79112 3.441757,-26.95418 5.087861,-9.16304 14.043481,-18.16584 24.913133,-25.20408 21.739307,-14.0765 50.448049,-19.40566 68.187929,-10.29663 35.92372,18.44601 79.96846,8.66044 105.52225,-11.51391 12.77689,-10.08716 21.84223,-24.1746 19.26171,-39.6896 -2.58054,-15.515 -16.06632,-28.48334 -39.63416,-38.05036 -10.13494,-4.11414 -14.57598,-7.93658 -16.08289,-10.92061 -1.5069,-2.98403 -1.6765,-7.38679 1.48239,-16.32508 l 3.18371,-6.37321 z"
           style="font-size:medium;font-style:normal;font-variant:normal;font-weight:normal;font-stretch:normal;text-indent:0;text-align:start;text-decoration:none;line-height:normal;letter-spacing:normal;word-spacing:normal;text-transform:none;direction:ltr;block-progression:tb;writing-mode:lr-tb;text-anchor:start;baseline-shift:baseline;color:#000000;fill:#e3e3e3;fill-opacity:1;stroke:#000000;stroke-width:5.49212599;stroke-miterlimit:4;stroke-opacity:1;stroke-dasharray:none;marker:none;visibility:visible;display:inline;overflow:visible;enable-background:accumulate;font-family:Sans;-inkscape-font-specification:Sans" />
        <path
           inkscape:connector-curvature="0"
           id="path3159"
           d="m 170.17942,529.82318 c 16.76754,-7.31979 16.76754,-7.31979 16.76754,-7.31979"
           style="fill:none;stroke:#000000;stroke-width:5.31496048;stroke-linecap:butt;stroke-linejoin:miter;stroke-miterlimit:4;stroke-opacity:1;stroke-dasharray:none;display:inline" />
        <path
           inkscape:connector-curvature="0"
           id="path3161"
           d="m 196.80858,551.38408 12.83721,-15.54064"
           style="fill:none;stroke:#000000;stroke-width:5.49212599;stroke-linecap:butt;stroke-linejoin:miter;stroke-miterlimit:4;stroke-opacity:1;stroke-dasharray:none;display:inline"
           sodipodi:nodetypes="cc" />
        <path
           inkscape:connector-curvature="0"
           id="path3163"
           d="m 220.21725,588.73857 15.06397,10.26166"
           style="fill:none;stroke:#000000;stroke-width:5.49212599;stroke-linecap:butt;stroke-linejoin:miter;stroke-miterlimit:4;stroke-opacity:1;stroke-dasharray:none;display:inline"
           sodipodi:nodetypes="cc" />
        <path
           inkscape:connector-curvature="0"
           id="path3165"
           d="m 221.08761,566.57801 14.57345,-10.5107"
           style="fill:none;stroke:#000000;stroke-width:5.49212599;stroke-linecap:butt;stroke-linejoin:miter;stroke-miterlimit:4;stroke-opacity:1;stroke-dasharray:none;display:inline"
           sodipodi:nodetypes="cc" />
        <path
           inkscape:connector-curvature="0"
           id="path3167"
           d="m 193.39751,607.26638 10.60412,15.18358"
           style="fill:none;stroke:#000000;stroke-width:5.49212599;stroke-linecap:butt;stroke-linejoin:miter;stroke-miterlimit:4;stroke-opacity:1;stroke-dasharray:none;display:inline"
           sodipodi:nodetypes="cc" />
        <path
           inkscape:connector-curvature="0"
           id="path3169"
           d="m 157.29488,613.82223 3.44176,18.92436"
           style="fill:none;stroke:#000000;stroke-width:5.49212599;stroke-linecap:butt;stroke-linejoin:miter;stroke-miterlimit:4;stroke-opacity:1;stroke-dasharray:none;display:inline" />
        <path
           inkscape:connector-curvature="0"
           id="path3172"
           d="m 117.40582,622.21321 8.35387,-15.29136"
           style="fill:none;stroke:#000000;stroke-width:5.49212599;stroke-linecap:butt;stroke-linejoin:miter;stroke-miterlimit:4;stroke-opacity:1;stroke-dasharray:none;display:inline"
           sodipodi:nodetypes="cc" />
        <path
           inkscape:connector-curvature="0"
           id="path3174"
           d="m 76.457736,601.59284 2.559255,18.03168"
           style="fill:none;stroke:#000000;stroke-width:5.49212599;stroke-linecap:butt;stroke-linejoin:miter;stroke-miterlimit:4;stroke-opacity:1;stroke-dasharray:none;display:inline" />
        <path
           sodipodi:nodetypes="cc"
           inkscape:connector-curvature="0"
           id="path3176"
           d="M 41.510668,638.99518 28.786223,626.43452"
           style="fill:none;stroke:#000000;stroke-width:5.49212599;stroke-linecap:butt;stroke-linejoin:miter;stroke-miterlimit:4;stroke-opacity:1;stroke-dasharray:none;display:inline" />
        <path
           sodipodi:nodetypes="cc"
           inkscape:connector-curvature="0"
           id="path3178"
           d="M 21.124877,664.97152 5.6405625,658.37368"
           style="fill:none;stroke:#000000;stroke-width:5.49212599;stroke-linecap:butt;stroke-linejoin:miter;stroke-miterlimit:4;stroke-opacity:1;stroke-dasharray:none;display:inline" />
        <path
           inkscape:connector-curvature="0"
           id="path3180"
           d="M 7.7991025,698.35689 25.449135,694.07213"
           style="fill:none;stroke:#000000;stroke-width:5.49212599;stroke-linecap:butt;stroke-linejoin:miter;stroke-miterlimit:4;stroke-opacity:1;stroke-dasharray:none;display:inline" />
        <path
           inkscape:connector-curvature="0"
           id="path3182"
           d="M 37.674973,722.85517 50.719385,708.31519"
           style="fill:none;stroke:#000000;stroke-width:5.49212599;stroke-linecap:butt;stroke-linejoin:miter;stroke-miterlimit:4;stroke-opacity:1;stroke-dasharray:none;display:inline"
           sodipodi:nodetypes="cc" />
        <path
           sodipodi:nodetypes="cc"
           inkscape:connector-curvature="0"
           id="path3184"
           d="M 78.96775,711.66783 77.781488,730.1355"
           style="fill:none;stroke:#000000;stroke-width:5.49212599;stroke-linecap:butt;stroke-linejoin:miter;stroke-miterlimit:4;stroke-opacity:1;stroke-dasharray:none;display:inline" />
        <path
           sodipodi:nodetypes="cc"
           inkscape:connector-curvature="0"
           id="path3186"
           d="m 107.43442,733.47423 7.09374,-15.92519"
           style="fill:none;stroke:#000000;stroke-width:5.49212599;stroke-linecap:butt;stroke-linejoin:miter;stroke-miterlimit:4;stroke-opacity:1;stroke-dasharray:none;display:inline" />
        <path
           inkscape:connector-curvature="0"
           id="path3188"
           d="m 133.30746,742.33385 12.25017,-12.91246"
           style="fill:none;stroke:#000000;stroke-width:5.49212599;stroke-linecap:butt;stroke-linejoin:miter;stroke-miterlimit:4;stroke-opacity:1;stroke-dasharray:none;display:inline"
           sodipodi:nodetypes="cc" />
        <path
           d="m 96.847454,456.46225 c 8.063356,-5.04645 16.126706,-10.06561 24.217026,-15.11206 -4.71935,-6.87408 -9.4387,-13.72087 -14.15806,-20.59495 10.13987,-1.30935 20.25277,-2.64597 30.39264,-3.9826 0.43149,-7.85609 0.88994,-15.73945 1.34839,-23.62282 9.46567,2.72781 18.90438,5.4829 28.37006,8.23798 5.50142,-6.79224 11.00284,-13.5572 16.47729,-20.32217 6.25651,6.05574 12.54,12.11147 18.79651,18.1672 9.06116,-3.87348 18.12232,-7.71969 27.18348,-11.59318 1.37536,7.77425 2.75071,15.54851 4.12607,23.29548 10.22077,0.10911 20.41458,0.19095 30.63535,0.27278 -3.85639,7.39236 -7.73974,14.78472 -11.59613,22.17708 8.60271,4.00988 17.23238,8.04703 25.83509,12.05691 -8.09033,5.01917 -16.15367,10.06561 -24.24399,15.08478 4.71935,6.87408 9.43871,13.72087 14.15806,20.59495 -10.13987,1.30935 -20.25277,2.64597 -30.39264,3.9826 -0.45845,7.85609 -0.88994,15.73945 -1.34839,23.62282 -9.46567,-2.72781 -18.90438,-5.4829 -28.37006,-8.23798 -5.50142,6.79224 -11.00284,13.58448 -16.47729,20.34945 -6.25651,-6.05574 -12.54,-12.13875 -18.79651,-18.19448 -9.06116,3.87348 -18.12232,7.71969 -27.18349,11.59318 -1.37535,-7.77425 -2.75071,-15.54851 -4.12606,-23.29548 -10.22077,-0.10911 -20.41457,-0.19095 -30.63535,-0.27278 3.85639,-7.39236 7.73974,-14.78472 11.59613,-22.17708 -8.60271,-4.00988 -17.20542,-8.01976 -25.808126,-12.02963 z m -4.153032,-69.91372 0,0 z m 189.933778,128.80709 0,0 z"
           id="path3190"
           inkscape:connector-curvature="0"
           style="fill:#fecb66;stroke:#000000;stroke-width:5.59842539;stroke-linejoin:round;stroke-miterlimit:99.90000153;stroke-opacity:1;stroke-dasharray:none;visibility:visible;display:inline" />
      </g>
    </g>
    <path
       style="fill:#728eb1;fill-opacity:1;stroke:#000000;stroke-width:1.419;stroke-miterlimit:4;stroke-opacity:1;stroke-dasharray:none;display:inline"
       d="m 90.247439,933.16602 17.600021,0 12.49031,12.49032 0,17.5999 -12.49031,12.4904 -17.600021,0 -12.49032,-12.4904 0,-17.5999 z"
       id="path4143"
       inkscape:connector-curvature="0"
       sodipodi:nodetypes="ccccccccc"
       inkscape:export-filename="C:\Documents and Settings\Julio Enciso\Escritorio\Bombardi. SDL edition\bild\CON_P.png"
       inkscape:export-xdpi="90"
       inkscape:export-ydpi="90" />
    <g
       style="display:inline"
       id="g5604"
       transform="matrix(0.12348187,0,0,0.1241933,-181.63339,1005.3462)"
       inkscape:export-filename="C:\Documents and Settings\Julio Enciso\Escritorio\Bombardi. SDL edition\bild\CON_S.png"
       inkscape:export-xdpi="90"
       inkscape:export-ydpi="90">
      <path
         inkscape:connector-curvature="0"
         style="fill:#728eb1;fill-opacity:1;stroke:none;display:inline"
         d="m 2940.9619,-536.42536 -100.5938,100.59375 88.5938,36.59375 48.625,-48.59375 -36.625,-88.59375 z m 141.7187,0 -36.5937,88.59375 48.5937,48.59375 0,0.0313 88.5938,-36.625 -100.5938,-100.59375 z m -153.7187,205.6875 -88.5938,36.625 100.5938,100.59375 36.5937,-88.59375 -48.5937,-48.625 z m 165.7187,0.0313 -48.5937,48.59375 -0.031,0 36.625,88.59375 100.5938,-100.5938 -88.5938,-36.59375 z"
         id="path5505" />
      <path
         id="path5507"
         d="m 2840.4804,-436.10275 0,142.26105 88.521,-36.76956 0.022,-68.74403 -88.5431,-36.74746 z m 100.2103,-100.21029 36.7696,88.52093 68.7219,0 0.022,0.0221 36.7475,-88.54302 -142.2611,0 z m 36.7475,254.1386 -36.7475,88.54302 142.261,0 -36.7695,-88.52093 -68.744,-0.0221 z m 117.2029,-117.15872 0,68.72194 -0.022,0.0221 88.5431,36.74746 0,-142.26112 -88.521,36.76955 z"
         style="fill:#ffffff;fill-opacity:1;stroke:none;display:inline"
         inkscape:connector-curvature="0" />
      <path
         inkscape:connector-curvature="0"
         style="fill:none;stroke:#000000;stroke-width:11.44488144;stroke-miterlimit:4;stroke-opacity:1;stroke-dasharray:none;display:inline"
         d="m 2940.9619,-536.42531 -100.5938,100.59375 0,141.71875 100.5938,100.59375 141.7187,0 100.5938,-100.59375 0,-141.71875 -100.5938,-100.59375 -141.7187,0 z m 36.625,88.59375 68.5,0 48.5937,48.59375 0,68.5 -48.5937,48.625 -68.5,0 -48.625,-48.625 0,-68.5 48.625,-48.59375 z"
         id="path5509" />
    </g>
    <g
       style="display:inline"
       id="g5867"
       transform="matrix(0.12414784,0,0,0.12350903,-200.76499,994.56337)"
       inkscape:export-filename="C:\Documents and Settings\Julio Enciso\Escritorio\Bombardi. SDL edition\bild\CON_T.png"
       inkscape:export-xdpi="90"
       inkscape:export-ydpi="90">
      <path
         id="path5771"
         d="m 2940.9618,-890.75607 -100.5937,100.59375 88.5937,36.59375 48.625,-48.59375 -36.625,-88.59375 z m 141.7188,0 -36.5938,88.59375 48.5938,48.59375 0,0.0313 88.5937,-36.625 -100.5937,-100.59375 z m -153.7188,205.6875 -88.5937,36.625 100.5937,100.59375 36.5938,-88.59375 -48.5938,-48.625 z m 165.7188,0.0313 -48.5938,48.59375 -0.031,0 36.625,88.59375 100.5938,-100.5938 -88.5937,-36.59375 z"
         style="fill:#728eb1;fill-opacity:1;stroke:none;display:inline"
         inkscape:connector-curvature="0" />
      <path
         inkscape:connector-curvature="0"
         style="fill:#ffffff;fill-opacity:1;stroke:none;display:inline"
         d="m 2840.4804,-790.43346 0,142.26105 88.5209,-36.76956 0.022,-68.74403 -88.543,-36.74746 z m 100.2102,-100.21029 36.7696,88.52093 68.7219,0 0.022,0.0221 36.7475,-88.54302 -142.261,0 z m 36.7475,254.1386 -36.7475,88.54302 142.2611,0 -36.7696,-88.52093 -68.744,-0.0221 z m 117.203,-117.15872 0,68.72194 -0.022,0.0221 88.543,36.74746 0,-142.26112 -88.5209,36.76955 z"
         id="path5773" />
      <path
         inkscape:connector-curvature="0"
         id="path5815"
         d="m 3009.4795,-890.7262 -18.5312,64.125 -48.125,-61.34375 8.6562,77.5 -58.0937,-32.6875 -4.375,4.375 32.1562,58.34375 -77.4062,-9.34375 60.9062,48.6875 -64.2812,17.96875 0,6.15625 64.0937,18.53125 -61.3125,48.125 77.4688,-8.65625 -32.6875,58.09375 4.4062,4.40625 58.3438,-32.1875 -9.3438,77.40625 48.6875,-60.90625 18,64.3125 6.0938,0 18.5625,-64.125 48.125,61.3125 -8.6563,-77.46875 58.125,32.6875 4.375,-4.375 -32.1875,-58.375 77.4063,9.34375 -60.9375,-48.6875 64.3437,-18 0,-6.09375 -64.1562,-18.5625 61.3437,-48.125 -77.5,8.65625 32.7188,-58.09375 -4.375,-4.375 -58.375,32.15625 9.3437,-77.40625 -48.6875,60.9375 -18,-64.3125 -6.125,0 z m -31.875,88.5625 68.5,0 48.5938,48.59375 0,68.5 -48.5938,48.625 -68.5,0 -48.625,-48.625 0,-68.5 48.625,-48.59375 z"
         style="fill:#fecb66;fill-opacity:1;stroke:none" />
      <path
         inkscape:connector-curvature="0"
         style="fill:none;stroke:#000000;stroke-width:11.44488144;stroke-miterlimit:4;stroke-opacity:1;stroke-dasharray:none;display:inline"
         d="m 2940.9618,-890.75602 -100.5937,100.59374 0,141.71875 100.5937,100.59376 141.7188,0 100.5937,-100.59376 0,-141.71875 -100.5937,-100.59374 -141.7188,0 z m 36.625,88.59374 68.5,0 48.5938,48.59375 0,68.5 -48.5938,48.625 -68.5,0 -48.625,-48.625 0,-68.5 48.625,-48.59375 z"
         id="path5817" />
    </g>
    <g
       id="g4161"
       inkscape:export-filename="C:\Documents and Settings\Julio Enciso\Escritorio\Bombardi. SDL edition\bild\CON_K.png"
       inkscape:export-xdpi="90"
       inkscape:export-ydpi="90"
       transform="translate(-88.801783,-116.70677)">
      <g
         style="display:inline"
         id="g4096"
         transform="matrix(0.06207565,0,0,0.06209498,-165.96242,1032.0222)"
         inkscape:export-filename="/home/daisy/Escritorio/Bombardi. C++ edition/bild/CON_salvavidas.png"
         inkscape:export-xdpi="88"
         inkscape:export-ydpi="88">
        <path
           inkscape:connector-curvature="0"
           style="fill:#728eb1;fill-opacity:1;stroke:none;display:inline"
           d="m 2940.9619,-536.42536 -100.5938,100.59375 88.5938,36.59375 48.625,-48.59375 -36.625,-88.59375 z m 141.7187,0 -36.5937,88.59375 48.5937,48.59375 0,0.0313 88.5938,-36.625 -100.5938,-100.59375 z m -153.7187,205.6875 -88.5938,36.625 100.5938,100.59375 36.5937,-88.59375 -48.5937,-48.625 z m 165.7187,0.0313 -48.5937,48.59375 -0.031,0 36.625,88.59375 100.5938,-100.5938 -88.5938,-36.59375 z"
           id="path4098" />
        <path
           id="path4100"
           d="m 2840.4804,-436.10275 0,142.26105 88.521,-36.76956 0.022,-68.74403 -88.5431,-36.74746 z m 100.2103,-100.21029 36.7696,88.52093 68.7219,0 0.022,0.0221 36.7475,-88.54302 -142.2611,0 z m 36.7475,254.1386 -36.7475,88.54302 142.261,0 -36.7695,-88.52093 -68.744,-0.0221 z m 117.2029,-117.15872 0,68.72194 -0.022,0.0221 88.5431,36.74746 0,-142.26112 -88.521,36.76955 z"
           style="fill:#ffffff;fill-opacity:1;stroke:none;display:inline"
           inkscape:connector-curvature="0" />
        <path
           inkscape:connector-curvature="0"
           style="fill:none;stroke:#000000;stroke-width:11.44488144;stroke-miterlimit:4;stroke-opacity:1;stroke-dasharray:none;display:inline"
           d="m 2940.9619,-536.42531 -100.5938,100.59375 0,141.71875 100.5938,100.59375 141.7187,0 100.5938,-100.59375 0,-141.71875 -100.5938,-100.59375 -141.7187,0 z m 36.625,88.59375 68.5,0 48.5937,48.59375 0,68.5 -48.5937,48.625 -68.5,0 -48.625,-48.625 0,-68.5 48.625,-48.59375 z"
           id="path4102" />
      </g>
      <g
         style="display:inline"
         id="g4104"
         transform="matrix(0.06208525,0,0,0.06208546,-143.98968,1076.0191)"
         inkscape:export-filename="/home/daisy/Escritorio/Bombardi. C++ edition/bild/CON_salvavidas_bomba.png"
         inkscape:export-xdpi="88"
         inkscape:export-ydpi="88">
        <path
           id="path4106"
           d="m 2940.9618,-890.75607 -100.5937,100.59375 88.5937,36.59375 48.625,-48.59375 -36.625,-88.59375 z m 141.7188,0 -36.5938,88.59375 48.5938,48.59375 0,0.0313 88.5937,-36.625 -100.5937,-100.59375 z m -153.7188,205.6875 -88.5937,36.625 100.5937,100.59375 36.5938,-88.59375 -48.5938,-48.625 z m 165.7188,0.0313 -48.5938,48.59375 -0.031,0 36.625,88.59375 100.5938,-100.5938 -88.5937,-36.59375 z"
           style="fill:#728eb1;fill-opacity:1;stroke:none;display:inline"
           inkscape:connector-curvature="0" />
        <path
           inkscape:connector-curvature="0"
           style="fill:#ffffff;fill-opacity:1;stroke:none;display:inline"
           d="m 2840.4804,-790.43346 0,142.26105 88.5209,-36.76956 0.022,-68.74403 -88.543,-36.74746 z m 100.2102,-100.21029 36.7696,88.52093 68.7219,0 0.022,0.0221 36.7475,-88.54302 -142.261,0 z m 36.7475,254.1386 -36.7475,88.54302 142.2611,0 -36.7696,-88.52093 -68.744,-0.0221 z m 117.203,-117.15872 0,68.72194 -0.022,0.0221 88.543,36.74746 0,-142.26112 -88.5209,36.76955 z"
           id="path4108" />
        <path
           inkscape:connector-curvature="0"
           id="path4110"
           d="m 3009.4795,-890.7262 -18.5312,64.125 -48.125,-61.34375 8.6562,77.5 -58.0937,-32.6875 -4.375,4.375 32.1562,58.34375 -77.4062,-9.34375 60.9062,48.6875 -64.2812,17.96875 0,6.15625 64.0937,18.53125 -61.3125,48.125 77.4688,-8.65625 -32.6875,58.09375 4.4062,4.40625 58.3438,-32.1875 -9.3438,77.40625 48.6875,-60.90625 18,64.3125 6.0938,0 18.5625,-64.125 48.125,61.3125 -8.6563,-77.46875 58.125,32.6875 4.375,-4.375 -32.1875,-58.375 77.4063,9.34375 -60.9375,-48.6875 64.3437,-18 0,-6.09375 -64.1562,-18.5625 61.3437,-48.125 -77.5,8.65625 32.7188,-58.09375 -4.375,-4.375 -58.375,32.15625 9.3437,-77.40625 -48.6875,60.9375 -18,-64.3125 -6.125,0 z m -31.875,88.5625 68.5,0 48.5938,48.59375 0,68.5 -48.5938,48.625 -68.5,0 -48.625,-48.625 0,-68.5 48.625,-48.59375 z"
           style="fill:#fecb66;fill-opacity:1;stroke:none" />
        <path
           inkscape:connector-curvature="0"
           style="fill:none;stroke:#000000;stroke-width:11.44488144;stroke-miterlimit:4;stroke-opacity:1;stroke-dasharray:none;display:inline"
           d="m 2940.9618,-890.75602 -100.5937,100.59374 0,141.71875 100.5937,100.59376 141.7188,0 100.5937,-100.59376 0,-141.71875 -100.5937,-100.59374 -141.7188,0 z m 36.625,88.59374 68.5,0 48.5938,48.59375 0,68.5 -48.5938,48.625 -68.5,0 -48.625,-48.625 0,-68.5 48.625,-48.59375 z"
           id="path4112" />
      </g>
      <g
         transform="matrix(0.96296299,0,0,0.96296386,1.0427113,36.93348)"
         id="g4157">
        <use
           height="354.33069"
           width="354.33069"
           transform="matrix(0.08172203,0.08167783,0.08172203,-0.08167783,-55.336113,1076.7747)"
           id="use4138"
           xlink:href="#path560"
           y="0"
           x="0" />
        <use
           height="354.33069"
           width="354.33069"
           transform="matrix(0.09872196,0.09867938,0.09872196,-0.09867938,-75.726381,1086.1423)"
           id="use4142"
           xlink:href="#use7716"
           y="0"
           x="0" />
      </g>
    </g>
    <g
       id="g3868"
       transform="matrix(1.4152441,0,0,1.3462279,-129.24119,-384.27899)"
       inkscape:export-filename="C:\Documents and Settings\Julio Enciso\Escritorio\Bombardi. SDL edition\bild\CON_.png"
       inkscape:export-xdpi="90"
       inkscape:export-ydpi="90">
      <path
         transform="translate(-40.063344,973.83243)"
         d="m 77.925407,53.433842 c -2.715071,-2.450189 1.963285,-4.868699 4.072375,-4.512628 5.715503,0.964931 6.995162,8.156773 4.952881,12.657377 -3.65316,8.050523 -14.136886,9.509317 -21.242379,5.393134 C 55.280687,60.931062 53.615316,46.775416 59.874896,37.144344"
         sodipodi:t0="0"
         sodipodi:argument="-8.6906166"
         sodipodi:radius="24.313961"
         sodipodi:revolution="1"
         sodipodi:expansion="1"
         sodipodi:cy="53.433842"
         sodipodi:cx="77.925407"
         id="path3057"
         style="fill:none;stroke:#000000;stroke-width:1.41900003;stroke-linecap:butt;stroke-linejoin:miter;stroke-miterlimit:4;stroke-opacity:1;stroke-dasharray:none"
         sodipodi:type="spiral" />
      <use
         x="0"
         y="0"
         xlink:href="#use7716"
         id="use3847"
         transform="matrix(0.0788931,-0.16135047,0.16150587,0.07857444,-147.657,996.63255)"
         width="354.33069"
         height="354.33069" />
    </g>
    <path
       sodipodi:type="star"
       style="fill:#fecb66;fill-opacity:1;stroke:#000000;stroke-width:1.32347703;stroke-linecap:square;stroke-miterlimit:4;stroke-opacity:1;stroke-dasharray:none"
       id="path3060"
       sodipodi:sides="16"
       sodipodi:cx="-65.727257"
       sodipodi:cy="-102.47314"
       sodipodi:r1="19.940956"
       sodipodi:r2="13.958669"
       sodipodi:arg1="0.67052156"
       sodipodi:arg2="0.8668711"
       inkscape:flatsided="false"
       inkscape:rounded="0"
       inkscape:randomized="0"
       d="m -50.103564,-90.081932 -6.589434,-1.750406 0.658242,6.78611 -5.417992,-4.138831 -1.988795,6.521446 -3.42171,-5.897157 -4.333056,5.263952 -0.904503,-6.757695 -6.017649,3.205069 1.750405,-6.589435 -6.78611,0.658243 4.138832,-5.417992 -6.521447,-1.988792 5.897158,-3.42171 -5.263953,-4.33306 6.757695,-0.9045 -3.205069,-6.01765 6.589435,1.7504 -0.658243,-6.78611 5.417992,4.13884 1.988795,-6.52145 3.42171,5.89716 4.333056,-5.26396 0.904504,6.7577 6.017649,-3.20507 -1.750406,6.58943 6.78611,-0.65824 -4.138831,5.41799 6.521446,1.9888 -5.897157,3.42171 5.263952,4.333055 -6.757695,0.904504 z"
       transform="matrix(1.1723752,0,0,1.1723752,-51.489901,1200.8377)"
       inkscape:transform-center-x="1.9405565"
       inkscape:transform-center-y="-0.3047389"
       inkscape:export-filename="C:\Documents and Settings\Julio Enciso\Escritorio\Bombardi. SDL edition\bild\CON_D.png"
       inkscape:export-xdpi="90"
       inkscape:export-ydpi="90" />
    <g
       id="g3164"
       inkscape:export-filename="/home/daisy/Escritorio/Bombardi. C++ edition/bild/credits.png"
       inkscape:export-xdpi="90.000008"
       inkscape:export-ydpi="90.000008">
      <path
         d="m -12.234258,1151.3076 c -0.164778,0 -0.345246,-0 -0.541404,-0.012 -0.188317,-0.01 -0.380553,-0.021 -0.576712,-0.037 -0.188316,-0.016 -0.376631,-0.037 -0.564943,-0.062 -0.188315,-0.025 -0.360937,-0.058 -0.517864,-0.099 l 0,-8.3048 c 0.156927,-0.041 0.329549,-0.074 0.517864,-0.099 0.188312,-0.025 0.376627,-0.045 0.564943,-0.062 0.196159,-0.016 0.388395,-0.029 0.576712,-0.037 0.188312,-0.01 0.364856,-0.012 0.529634,-0.012 0.470782,0 0.910182,0.037 1.3182,0.1112 0.415856,0.074 0.772868,0.2019 1.0710374,0.3831 0.3060048,0.1731 0.5453208,0.4038 0.7179481,0.6921 0.1726145,0.2884 0.2589252,0.6427 0.2589321,1.0628 -6.9e-6,0.4697 -0.1059336,0.8569 -0.3177803,1.1617 -0.2118594,0.2966 -0.4943308,0.5191 -0.8474143,0.6674 0.4786263,0.1483 0.859178,0.3831 1.1416553,0.7044 0.2824646,0.3213 0.4237003,0.7745 0.4237071,1.3594 -6.8e-6,0.8569 -0.3020943,1.5036 -0.9062624,1.9403 -0.5963344,0.4284 -1.545751,0.6426 -2.848253,0.6426 m -1.071038,-4.0659 0,3.0155 c 0.08631,0.01 0.188313,0.016 0.306011,0.025 0.102001,0.01 0.219697,0.016 0.353089,0.025 0.141233,0 0.302085,0 0.482556,0 0.337392,0 0.655172,-0.021 0.953341,-0.062 0.306005,-0.049 0.572784,-0.1318 0.800335,-0.2472 0.227542,-0.1153 0.408009,-0.276 0.5414037,-0.4819 0.1412298,-0.206 0.2118477,-0.4655 0.2118536,-0.7786 -5.9e-6,-0.2801 -0.051012,-0.5149 -0.1530054,-0.7044 -0.1020094,-0.1978 -0.2510909,-0.3543 -0.4472459,-0.4697 -0.18832,-0.1153 -0.415866,-0.1977 -0.68264,-0.2471 -0.266782,-0.05 -0.564946,-0.074 -0.894492,-0.074 l -1.471206,0 m 0,-0.9639 1.200504,0 c 0.282467,0 0.549246,-0.021 0.800335,-0.062 0.251082,-0.041 0.466858,-0.1154 0.647331,-0.2225 0.188309,-0.1071 0.333468,-0.2471 0.435476,-0.4202 0.109846,-0.173 0.164771,-0.3913 0.164775,-0.655 -4e-6,-0.2471 -0.05493,-0.4531 -0.164775,-0.6179 -0.109854,-0.173 -0.26286,-0.3089 -0.459016,-0.4078 -0.188319,-0.1071 -0.411941,-0.1854 -0.670869,-0.2348 -0.258936,-0.049 -0.533561,-0.074 -0.823875,-0.074 -0.290321,0 -0.517867,0 -0.682639,0.012 -0.164777,0.01 -0.313859,0.021 -0.447247,0.037 l 0,2.6447"
         style="font-size:12px;font-style:normal;font-variant:normal;font-weight:normal;font-stretch:normal;line-height:125%;letter-spacing:0px;word-spacing:0px;fill:#000000;fill-opacity:1;stroke:none;font-family:Ubuntu;-inkscape-font-specification:Ubuntu"
         id="path3069"
         inkscape:connector-curvature="0"
         inkscape:export-filename="C:\Documents and Settings\Julio Enciso\Escritorio\bombardi_sdledition_win\bild\credits.png"
         inkscape:export-xdpi="90"
         inkscape:export-ydpi="90" />
      <path
         d="m -7.6608325,1152.4322 c 0.086311,0.041 0.1961597,0.078 0.3295499,0.1113 0.1412348,0.041 0.2785472,0.062 0.4119375,0.062 0.4315516,0 0.7689479,-0.103 1.0121882,-0.309 0.2432373,-0.1977 0.4629372,-0.5232 0.6591009,-0.9763 -0.4943279,-0.9887 -0.9572662,-2.035 -1.3888187,-3.139 -0.4237071,-1.1123 -0.7767963,-2.2369 -1.0592667,-3.3739 l 1.1769641,0 c 0.086311,0.3708 0.1883123,0.7704 0.3060107,1.1988 0.1255409,0.4284 0.2628533,0.8692 0.4119374,1.3223 0.1490792,0.4532 0.309931,0.9063 0.4825553,1.3595 0.1726185,0.4531 0.3530863,0.8898 0.5414035,1.3099 0.2981604,-0.865 0.5570925,-1.7219 0.7767964,-2.5705 0.219695,-0.8486 0.4276254,-1.7219 0.623791,-2.62 l 1.1298846,0 c -0.2824763,1.2111 -0.5963334,2.377 -0.9415714,3.4974 -0.3452467,1.1123 -0.717952,2.1545 -1.1181149,3.1267 -0.1569325,0.3708 -0.3217075,0.688 -0.4943259,0.9516 -0.164777,0.2719 -0.349168,0.4943 -0.5531732,0.6674 -0.2040091,0.173 -0.4354787,0.3007 -0.6944078,0.3831 -0.2510877,0.082 -0.5374823,0.1236 -0.8591839,0.1236 -0.086311,0 -0.1765456,-0.01 -0.2707017,-0.025 -0.094157,-0.01 -0.1883153,-0.025 -0.2824714,-0.049 -0.086311,-0.016 -0.1686992,-0.037 -0.2471625,-0.062 -0.070618,-0.025 -0.1216206,-0.045 -0.1530053,-0.062 l 0.2000839,-0.9269"
         style="font-size:12px;font-style:normal;font-variant:normal;font-weight:normal;font-stretch:normal;line-height:125%;letter-spacing:0px;word-spacing:0px;fill:#000000;fill-opacity:1;stroke:none;font-family:Ubuntu;-inkscape-font-specification:Ubuntu"
         id="path3071"
         inkscape:connector-curvature="0"
         inkscape:export-filename="C:\Documents and Settings\Julio Enciso\Escritorio\bombardi_sdledition_win\bild\credits.png"
         inkscape:export-xdpi="90"
         inkscape:export-ydpi="90" />
      <path
         d="m 5.5984031,1148.4776 c -4.9e-6,0.4119 -0.043155,0.795 -0.129465,1.1493 -0.078464,0.3543 -0.2236281,0.6673 -0.4354777,0.9392 -0.2040111,0.2637 -0.4825583,0.4738 -0.8356436,0.6303 -0.3452467,0.1483 -0.7807225,0.2225 -1.3064302,0.2225 -0.2667805,0 -0.513943,-0.025 -0.7414874,-0.074 -0.2197019,-0.041 -0.4197858,-0.095 -0.6002527,-0.1607 -0.1804678,-0.074 -0.3373964,-0.1483 -0.4707847,-0.2224 -0.13339022,-0.082 -0.23931699,-0.1607 -0.31778127,-0.2348 l 0.44724737,-0.9516 c 0.164774,0.1236 0.3766275,0.2554 0.6355606,0.3955 0.2667766,0.1318 0.5963266,0.1977 0.9886489,0.1977 0.5649408,0 0.9768773,-0.1483 1.2358124,-0.4449 0.2589291,-0.3048 0.3883952,-0.8239 0.3883981,-1.5572 l 0,-5.6972 1.1416552,0 0,5.8085"
         style="font-size:12px;font-style:normal;font-variant:normal;font-weight:normal;font-stretch:normal;line-height:125%;letter-spacing:0px;word-spacing:0px;fill:#000000;fill-opacity:1;stroke:none;font-family:Ubuntu;-inkscape-font-specification:Ubuntu"
         id="path3073"
         inkscape:connector-curvature="0"
         inkscape:export-filename="C:\Documents and Settings\Julio Enciso\Escritorio\bombardi_sdledition_win\bild\credits.png"
         inkscape:export-xdpi="90"
         inkscape:export-ydpi="90" />
      <path
         d="m 12.365947,1151.0481 c -0.251091,0.066 -0.584564,0.1359 -1.000419,0.2101 -0.408019,0.074 -0.882728,0.1112 -1.4241262,0.1112 -0.4707886,0 -0.8670332,-0.07 -1.1887338,-0.2101 -0.3217055,-0.1483 -0.5806376,-0.3542 -0.7767973,-0.6179 -0.1961617,-0.2636 -0.3373974,-0.5726 -0.4237061,-0.9269 -0.086311,-0.3625 -0.129467,-0.7621 -0.129467,-1.1987 l 0,-3.6087 1.0945766,0 0,3.3615 c -1.9e-6,0.7827 0.1176945,1.3429 0.3530893,1.6807 0.2353908,0.3378 0.6316344,0.5067 1.1887345,0.5067 0.117693,0 0.239312,-0 0.364859,-0.012 0.125538,-0.01 0.243234,-0.016 0.353089,-0.025 0.109845,-0.016 0.207926,-0.029 0.29424,-0.037 0.09416,-0.016 0.160848,-0.033 0.200084,-0.049 l 0,-5.4254 1.094577,0 0,6.241"
         style="font-size:12px;font-style:normal;font-variant:normal;font-weight:normal;font-stretch:normal;line-height:125%;letter-spacing:0px;word-spacing:0px;fill:#000000;fill-opacity:1;stroke:none;font-family:Ubuntu;-inkscape-font-specification:Ubuntu"
         id="path3075"
         inkscape:connector-curvature="0"
         inkscape:export-filename="C:\Documents and Settings\Julio Enciso\Escritorio\bombardi_sdledition_win\bild\credits.png"
         inkscape:export-xdpi="90"
         inkscape:export-ydpi="90" />
      <path
         d="m 16.087729,1151.3571 c -0.674795,-0.016 -1.153427,-0.1689 -1.435896,-0.4573 -0.282473,-0.2884 -0.423708,-0.7374 -0.423707,-1.3471 l 0,-7.7116 1.094577,-0.1977 0,7.724 c -3e-6,0.1895 0.01569,0.346 0.04708,0.4696 0.03139,0.1236 0.08239,0.2224 0.153005,0.2966 0.07062,0.074 0.164772,0.1318 0.282472,0.173 0.117693,0.033 0.262852,0.062 0.435477,0.087 l -0.153006,0.964"
         style="font-size:12px;font-style:normal;font-variant:normal;font-weight:normal;font-stretch:normal;line-height:125%;letter-spacing:0px;word-spacing:0px;fill:#000000;fill-opacity:1;stroke:none;font-family:Ubuntu;-inkscape-font-specification:Ubuntu"
         id="path3077"
         inkscape:connector-curvature="0"
         inkscape:export-filename="C:\Documents and Settings\Julio Enciso\Escritorio\bombardi_sdledition_win\bild\credits.png"
         inkscape:export-xdpi="90"
         inkscape:export-ydpi="90" />
      <path
         d="m 18.564503,1151.2335 -1.094577,0 0,-6.4264 1.094577,0 0,6.4264 m -0.553173,-7.5881 c -0.196163,0 -0.364861,-0.066 -0.506096,-0.1977 -0.133389,-0.1401 -0.200083,-0.3254 -0.200082,-0.5561 -1e-6,-0.2307 0.06669,-0.412 0.200082,-0.5438 0.141235,-0.1401 0.309933,-0.2101 0.506096,-0.2101 0.196159,0 0.360934,0.07 0.494325,0.2101 0.141233,0.1318 0.211851,0.3131 0.211853,0.5438 -2e-6,0.2307 -0.07062,0.416 -0.211853,0.5561 -0.133391,0.1318 -0.298166,0.1977 -0.494325,0.1977"
         style="font-size:12px;font-style:normal;font-variant:normal;font-weight:normal;font-stretch:normal;line-height:125%;letter-spacing:0px;word-spacing:0px;fill:#000000;fill-opacity:1;stroke:none;font-family:Ubuntu;-inkscape-font-specification:Ubuntu"
         id="path3079"
         inkscape:connector-curvature="0"
         inkscape:export-filename="C:\Documents and Settings\Julio Enciso\Escritorio\bombardi_sdledition_win\bild\credits.png"
         inkscape:export-xdpi="90"
         inkscape:export-ydpi="90" />
      <path
         d="m 25.860577,1148.0203 c -6e-6,0.5108 -0.07063,0.9722 -0.211853,1.3841 -0.141243,0.412 -0.341326,0.7663 -0.600252,1.0629 -0.251091,0.2966 -0.553179,0.5273 -0.906262,0.692 -0.353094,0.1566 -0.737568,0.2348 -1.153425,0.2348 -0.415865,0 -0.800339,-0.078 -1.153425,-0.2348 -0.353092,-0.1647 -0.659102,-0.3954 -0.918032,-0.692 -0.251088,-0.2966 -0.447247,-0.6509 -0.588482,-1.0629 -0.141237,-0.4119 -0.211855,-0.8733 -0.211855,-1.3841 0,-0.5026 0.07062,-0.9598 0.211855,-1.3718 0.141235,-0.4202 0.337394,-0.7786 0.588482,-1.0752 0.25893,-0.2966 0.56494,-0.5231 0.918032,-0.6797 0.353086,-0.1647 0.73756,-0.2471 1.153425,-0.2471 0.415857,0 0.800331,0.082 1.153425,0.2471 0.353083,0.1566 0.655171,0.3831 0.906262,0.6797 0.258926,0.2966 0.459009,0.655 0.600252,1.0752 0.141229,0.412 0.211847,0.8692 0.211853,1.3718 m -1.141656,0 c -5e-6,-0.725 -0.156933,-1.2976 -0.470784,-1.7178 -0.306016,-0.4284 -0.7258,-0.6426 -1.259352,-0.6427 -0.53356,1e-4 -0.957267,0.2143 -1.271121,0.6427 -0.306013,0.4202 -0.459018,0.9928 -0.459016,1.7178 -2e-6,0.725 0.153003,1.3018 0.459016,1.7302 0.313854,0.4202 0.737561,0.6303 1.271121,0.6303 0.533552,0 0.953336,-0.2101 1.259352,-0.6303 0.313851,-0.4284 0.470779,-1.0052 0.470784,-1.7302"
         style="font-size:12px;font-style:normal;font-variant:normal;font-weight:normal;font-stretch:normal;line-height:125%;letter-spacing:0px;word-spacing:0px;fill:#000000;fill-opacity:1;stroke:none;font-family:Ubuntu;-inkscape-font-specification:Ubuntu"
         id="path3081"
         inkscape:connector-curvature="0"
         inkscape:export-filename="C:\Documents and Settings\Julio Enciso\Escritorio\bombardi_sdledition_win\bild\credits.png"
         inkscape:export-xdpi="90"
         inkscape:export-ydpi="90" />
      <path
         d="m 30.183714,1151.2335 0,-8.5644 4.978558,0 0,1.0258 -3.836904,0 0,2.5458 3.413196,0 0,1.001 -3.413196,0 0,2.966 4.131145,0 0,1.0258 -5.272799,0"
         style="font-size:12px;font-style:normal;font-variant:normal;font-weight:normal;font-stretch:normal;line-height:125%;letter-spacing:0px;word-spacing:0px;fill:#000000;fill-opacity:1;stroke:none;font-family:Ubuntu;-inkscape-font-specification:Ubuntu"
         id="path3083"
         inkscape:connector-curvature="0"
         inkscape:export-filename="C:\Documents and Settings\Julio Enciso\Escritorio\bombardi_sdledition_win\bild\credits.png"
         inkscape:export-xdpi="90"
         inkscape:export-ydpi="90" />
      <path
         d="m 36.82547,1144.9925 c 0.251083,-0.066 0.584556,-0.1359 1.000419,-0.2101 0.415858,-0.074 0.89449,-0.1112 1.435896,-0.1112 0.486475,0 0.890565,0.074 1.212273,0.2224 0.321699,0.1401 0.576707,0.3419 0.765027,0.6056 0.196155,0.2554 0.333467,0.5644 0.411937,0.9269 0.07846,0.3625 0.117691,0.7621 0.117696,1.1987 l 0,3.6087 -1.094576,0 0,-3.3615 c -5e-6,-0.3955 -0.02747,-0.7333 -0.08239,-1.0134 -0.04708,-0.2801 -0.12947,-0.5067 -0.247162,-0.6797 -0.117701,-0.173 -0.274629,-0.2966 -0.470786,-0.3708 -0.196164,-0.082 -0.439403,-0.1235 -0.729718,-0.1235 -0.117699,0 -0.239319,0 -0.364858,0.012 -0.125546,0.01 -0.247166,0.021 -0.364859,0.037 -0.109853,0.01 -0.211856,0.021 -0.306011,0.037 -0.08631,0.017 -0.149084,0.029 -0.188314,0.037 l 0,5.4254 -1.094576,0 0,-6.241"
         style="font-size:12px;font-style:normal;font-variant:normal;font-weight:normal;font-stretch:normal;line-height:125%;letter-spacing:0px;word-spacing:0px;fill:#000000;fill-opacity:1;stroke:none;font-family:Ubuntu;-inkscape-font-specification:Ubuntu"
         id="path3085"
         inkscape:connector-curvature="0"
         inkscape:export-filename="C:\Documents and Settings\Julio Enciso\Escritorio\bombardi_sdledition_win\bild\credits.png"
         inkscape:export-xdpi="90"
         inkscape:export-ydpi="90" />
      <path
         d="m 46.243757,1151.3818 c -0.494328,0 -0.929805,-0.082 -1.30643,-0.2472 -0.368784,-0.1648 -0.682641,-0.3955 -0.941572,-0.6921 -0.251086,-0.2966 -0.439401,-0.6467 -0.564942,-1.0504 -0.125544,-0.412 -0.188315,-0.8651 -0.188315,-1.3594 0,-0.4944 0.06669,-0.9475 0.200084,-1.3595 0.141235,-0.4119 0.337395,-0.7662 0.588482,-1.0628 0.251084,-0.3048 0.557095,-0.5396 0.918032,-0.7044 0.36878,-0.173 0.776794,-0.2595 1.224043,-0.2595 0.274621,0 0.549246,0.025 0.823875,0.074 0.27462,0.049 0.537475,0.1277 0.788566,0.2348 l -0.247163,0.9763 c -0.164779,-0.082 -0.357017,-0.1483 -0.576712,-0.1977 -0.211858,-0.049 -0.439404,-0.074 -0.682639,-0.074 -0.612025,1e-4 -1.08281,0.2019 -1.412357,0.6056 -0.321706,0.4037 -0.482557,0.9928 -0.482556,1.7673 -10e-7,0.346 0.03531,0.6632 0.105927,0.9516 0.07846,0.2883 0.196159,0.5355 0.353089,0.7415 0.164773,0.2059 0.372703,0.3666 0.623791,0.4819 0.251083,0.1071 0.557093,0.1607 0.918033,0.1607 0.290313,0 0.553168,-0.029 0.788565,-0.087 0.235389,-0.058 0.419779,-0.1195 0.553174,-0.1854 l 0.153005,0.964 c -0.06278,0.041 -0.15301,0.082 -0.270702,0.1235 -0.117701,0.033 -0.25109,0.062 -0.400168,0.087 -0.149086,0.033 -0.309938,0.058 -0.482555,0.074 -0.164779,0.025 -0.32563,0.037 -0.482555,0.037"
         style="font-size:12px;font-style:normal;font-variant:normal;font-weight:normal;font-stretch:normal;line-height:125%;letter-spacing:0px;word-spacing:0px;fill:#000000;fill-opacity:1;stroke:none;font-family:Ubuntu;-inkscape-font-specification:Ubuntu"
         id="path3087"
         inkscape:connector-curvature="0"
         inkscape:export-filename="C:\Documents and Settings\Julio Enciso\Escritorio\bombardi_sdledition_win\bild\credits.png"
         inkscape:export-xdpi="90"
         inkscape:export-ydpi="90" />
      <path
         d="m 50.149439,1151.2335 -1.094577,0 0,-6.4264 1.094577,0 0,6.4264 m -0.553173,-7.5881 c -0.196162,0 -0.36486,-0.066 -0.506095,-0.1977 -0.13339,-0.1401 -0.200085,-0.3254 -0.200084,-0.5561 -1e-6,-0.2307 0.06669,-0.412 0.200084,-0.5438 0.141235,-0.1401 0.309933,-0.2101 0.506095,-0.2101 0.196159,0 0.360933,0.07 0.494325,0.2101 0.141233,0.1318 0.211851,0.3131 0.211853,0.5438 -2e-6,0.2307 -0.07062,0.416 -0.211853,0.5561 -0.133392,0.1318 -0.298166,0.1977 -0.494325,0.1977"
         style="font-size:12px;font-style:normal;font-variant:normal;font-weight:normal;font-stretch:normal;line-height:125%;letter-spacing:0px;word-spacing:0px;fill:#000000;fill-opacity:1;stroke:none;font-family:Ubuntu;-inkscape-font-specification:Ubuntu"
         id="path3089"
         inkscape:connector-curvature="0"
         inkscape:export-filename="C:\Documents and Settings\Julio Enciso\Escritorio\bombardi_sdledition_win\bild\credits.png"
         inkscape:export-xdpi="90"
         inkscape:export-ydpi="90" />
      <path
         d="m 53.467374,1150.4055 c 0.447244,0 0.776793,-0.062 0.98865,-0.1854 0.219697,-0.1236 0.329546,-0.3213 0.32955,-0.5932 -4e-6,-0.2801 -0.10593,-0.5026 -0.31778,-0.6674 -0.211857,-0.1647 -0.561023,-0.3501 -1.047498,-0.5561 -0.235395,-0.099 -0.462941,-0.1977 -0.68264,-0.2966 -0.211855,-0.1071 -0.396245,-0.2307 -0.553173,-0.3707 -0.156929,-0.1401 -0.282472,-0.309 -0.376628,-0.5067 -0.09416,-0.1978 -0.141237,-0.4408 -0.141236,-0.7292 -10e-7,-0.5685 0.200083,-1.0175 0.600252,-1.347 0.400166,-0.3378 0.945492,-0.5067 1.63598,-0.5067 0.172618,0 0.34524,0.012 0.517864,0.037 0.172618,0.016 0.33347,0.041 0.482555,0.074 0.149079,0.025 0.278545,0.053 0.388399,0.086 0.117692,0.033 0.207926,0.062 0.270701,0.086 l -0.200084,0.9887 c -0.1177,-0.066 -0.302091,-0.1318 -0.553173,-0.1978 -0.251089,-0.074 -0.553176,-0.1112 -0.906262,-0.1112 -0.306013,0 -0.572792,0.066 -0.800336,0.1977 -0.227548,0.1236 -0.341321,0.3214 -0.341319,0.5932 -2e-6,0.1401 0.02354,0.2637 0.07062,0.3708 0.05492,0.1071 0.133387,0.206 0.235392,0.2966 0.109848,0.082 0.243237,0.1607 0.400168,0.2348 0.156926,0.074 0.34524,0.1524 0.564943,0.2348 0.290315,0.1154 0.549247,0.2307 0.776796,0.3461 0.227543,0.1071 0.41978,0.2348 0.576713,0.3831 0.16477,0.1483 0.290313,0.3295 0.376628,0.5437 0.08631,0.206 0.129462,0.4614 0.129466,0.7663 -4e-6,0.5932 -0.211858,1.0422 -0.63556,1.347 -0.415865,0.3049 -1.012193,0.4573 -1.788986,0.4573 -0.541405,0 -0.965112,-0.05 -1.271121,-0.1483 -0.306012,-0.091 -0.513942,-0.1607 -0.623791,-0.2101 l 0.200084,-0.9887 c 0.125542,0.05 0.325626,0.1236 0.600252,0.2225 0.274623,0.099 0.639482,0.1483 1.094576,0.1483"
         style="font-size:12px;font-style:normal;font-variant:normal;font-weight:normal;font-stretch:normal;line-height:125%;letter-spacing:0px;word-spacing:0px;fill:#000000;fill-opacity:1;stroke:none;font-family:Ubuntu;-inkscape-font-specification:Ubuntu"
         id="path3091"
         inkscape:connector-curvature="0"
         inkscape:export-filename="C:\Documents and Settings\Julio Enciso\Escritorio\bombardi_sdledition_win\bild\credits.png"
         inkscape:export-xdpi="90"
         inkscape:export-ydpi="90" />
      <path
         d="m 62.686681,1148.0203 c -6e-6,0.5108 -0.07063,0.9722 -0.211853,1.3841 -0.141242,0.412 -0.341325,0.7663 -0.600251,1.0629 -0.251092,0.2966 -0.553179,0.5273 -0.906263,0.692 -0.353094,0.1566 -0.737568,0.2348 -1.153426,0.2348 -0.415863,0 -0.800337,-0.078 -1.153423,-0.2348 -0.353093,-0.1647 -0.659102,-0.3954 -0.918032,-0.692 -0.251088,-0.2966 -0.447248,-0.6509 -0.588484,-1.0629 -0.141235,-0.4119 -0.211853,-0.8733 -0.211852,-1.3841 -1e-6,-0.5026 0.07062,-0.9598 0.211852,-1.3718 0.141236,-0.4202 0.337396,-0.7786 0.588484,-1.0752 0.25893,-0.2966 0.564939,-0.5231 0.918032,-0.6797 0.353086,-0.1647 0.73756,-0.2471 1.153423,-0.2471 0.415858,0 0.800332,0.082 1.153426,0.2471 0.353084,0.1566 0.655171,0.3831 0.906263,0.6797 0.258926,0.2966 0.459009,0.655 0.600251,1.0752 0.141229,0.412 0.211847,0.8692 0.211853,1.3718 m -1.141654,0 c -6e-6,-0.725 -0.156935,-1.2976 -0.470786,-1.7178 -0.306016,-0.4284 -0.725799,-0.6426 -1.259353,-0.6427 -0.533559,1e-4 -0.957266,0.2143 -1.27112,0.6427 -0.306012,0.4202 -0.459018,0.9928 -0.459016,1.7178 -2e-6,0.725 0.153004,1.3018 0.459016,1.7302 0.313854,0.4202 0.737561,0.6303 1.27112,0.6303 0.533554,0 0.953337,-0.2101 1.259353,-0.6303 0.313851,-0.4284 0.47078,-1.0052 0.470786,-1.7302"
         style="font-size:12px;font-style:normal;font-variant:normal;font-weight:normal;font-stretch:normal;line-height:125%;letter-spacing:0px;word-spacing:0px;fill:#000000;fill-opacity:1;stroke:none;font-family:Ubuntu;-inkscape-font-specification:Ubuntu"
         id="path3093"
         inkscape:connector-curvature="0"
         inkscape:export-filename="C:\Documents and Settings\Julio Enciso\Escritorio\bombardi_sdledition_win\bild\credits.png"
         inkscape:export-xdpi="90"
         inkscape:export-ydpi="90" />
      <path
         d="m 68.010237,1147.5383 c -2e-6,1.0546 0.145157,2.0309 0.435477,2.929 0.290315,0.898 0.717945,1.7301 1.282891,2.4964 l -0.776797,0.5561 c -0.612023,-0.7827 -1.106347,-1.6808 -1.482975,-2.6941 -0.368783,-1.0217 -0.553173,-2.1174 -0.553173,-3.2874 0,-1.1699 0.18439,-2.2616 0.553173,-3.275 0.376628,-1.0216 0.870952,-1.9237 1.482975,-2.7064 l 0.776797,0.5561 c -0.564946,0.7662 -0.992576,1.5983 -1.282891,2.4964 -0.29032,0.898 -0.435479,1.8743 -0.435477,2.9289"
         style="font-size:12px;font-style:normal;font-variant:normal;font-weight:normal;font-stretch:normal;line-height:125%;letter-spacing:0px;word-spacing:0px;fill:#000000;fill-opacity:1;stroke:none;font-family:Ubuntu;-inkscape-font-specification:Ubuntu"
         id="path3095"
         inkscape:connector-curvature="0"
         inkscape:export-filename="C:\Documents and Settings\Julio Enciso\Escritorio\bombardi_sdledition_win\bild\credits.png"
         inkscape:export-xdpi="90"
         inkscape:export-ydpi="90" />
      <path
         d="m 76.098555,1142.6691 0,8.5644 -4.978599,0 0,-1.0258 3.8369,0 0,-2.5458 -3.4132,0 0,-1.001 3.4132,0 0,-2.966 -4.1311,0 0,-1.0258 5.272799,0"
         style="font-size:12px;font-style:normal;font-variant:normal;font-weight:normal;font-stretch:normal;line-height:125%;letter-spacing:0px;word-spacing:0px;fill:#000000;fill-opacity:1;stroke:none;font-family:Ubuntu;-inkscape-font-specification:Ubuntu"
         id="path3097"
         inkscape:connector-curvature="0"
         inkscape:export-filename="C:\Documents and Settings\Julio Enciso\Escritorio\bombardi_sdledition_win\bild\credits.png"
         inkscape:export-xdpi="90"
         inkscape:export-ydpi="90" />
      <path
         inkscape:connector-curvature="0"
         id="path3099"
         d="m 78.074565,1142.6691 c 0.264409,0.7233 0.493818,1.4585 0.7415,2.1875 1.2319,0 2.4638,0 3.6957,0 0.247133,-0.7292 0.494267,-1.4583 0.7414,-2.1875 0.396267,0 0.792533,0 1.1888,0 -1.004694,2.8877 -2.011794,5.7808 -3.2838,8.5644 -0.349133,0 -0.698267,0 -1.0474,0 -1.26629,-2.7856 -2.276725,-5.6777 -3.2838,-8.5644 0.415867,0 0.831733,0 1.2476,0 z m 1.071,3.1761 c 0.482779,1.3473 0.954192,2.7005 1.5183,4.0165 0.586708,-1.307 1.05592,-2.6619 1.5183,-4.0165 -1.0122,0 -2.0244,0 -3.0366,0 z"
         style="font-size:12px;font-style:normal;font-variant:normal;font-weight:normal;font-stretch:normal;line-height:125%;letter-spacing:0px;word-spacing:0px;fill:#000000;fill-opacity:1;stroke:none;font-family:Ubuntu;-inkscape-font-specification:Ubuntu"
         inkscape:export-filename="C:\Documents and Settings\Julio Enciso\Escritorio\bombardi_sdledition_win\bild\credits.png"
         inkscape:export-xdpi="90"
         inkscape:export-ydpi="90" />
      <path
         d="m 86.326374,1147.5383 c -10e-7,-1.0546 -0.14516,-2.0309 -0.435476,-2.9289 -0.29032,-0.8981 -0.717949,-1.7302 -1.282891,-2.4964 l 0.776795,-0.5561 c 0.612021,0.7827 1.102421,1.6848 1.471205,2.7064 0.376627,1.0134 0.564941,2.1051 0.564943,3.275 -2e-6,1.17 -0.188316,2.2657 -0.564943,3.2874 -0.368784,1.0133 -0.859184,1.9114 -1.471205,2.6941 l -0.776795,-0.5561 c 0.564942,-0.7663 0.992571,-1.5984 1.282891,-2.4964 0.290316,-0.8981 0.435475,-1.8744 0.435476,-2.929"
         style="font-size:12px;font-style:normal;font-variant:normal;font-weight:normal;font-stretch:normal;line-height:125%;letter-spacing:0px;word-spacing:0px;fill:#000000;fill-opacity:1;stroke:none;font-family:Ubuntu;-inkscape-font-specification:Ubuntu"
         id="path3101"
         inkscape:connector-curvature="0"
         inkscape:export-filename="C:\Documents and Settings\Julio Enciso\Escritorio\bombardi_sdledition_win\bild\credits.png"
         inkscape:export-xdpi="90"
         inkscape:export-ydpi="90" />
    </g>
    <rect
       inkscape:export-ydpi="90"
       inkscape:export-xdpi="90"
       inkscape:export-filename="C:\Documents and Settings\Julio Enciso\Escritorio\Bombardi. SDL edition\bild\win.png"
       y="860.43976"
       x="-218.38156"
       height="128"
       width="64"
       id="rect3085"
       style="fill:#84a1c4;fill-opacity:1;stroke:none" />
    <path
       inkscape:export-ydpi="90"
       inkscape:export-xdpi="90"
       inkscape:export-filename="C:\Documents and Settings\Julio Enciso\Escritorio\Bombardi. SDL edition\bild\CON_N.png"
       sodipodi:nodetypes="ccccccccc"
       inkscape:connector-curvature="0"
       id="path3855"
       d="m 28.693332,1012.3609 6.61334,0 4.693328,4.6934 0,6.6132 -4.693328,4.6934 -6.61334,0 L 24,1023.6675 l 0,-6.6132 z"
       style="fill:#c8c8c8;fill-opacity:1;stroke:none;display:inline" />
    <rect
       inkscape:export-ydpi="90"
       inkscape:export-xdpi="90"
       inkscape:export-filename="C:\Documents and Settings\Julio Enciso\Escritorio\bombardi_sdledition_win\bild\cuadro2.png"
       y="1038.4066"
       x="222.96571"
       height="62.222221"
       width="62.222221"
       id="rect3868"
       style="fill:#c83737;fill-opacity:1;stroke:#000000;stroke-width:1.77777779000000000;stroke-miterlimit:4;stroke-opacity:1;stroke-dasharray:none" />
    <g
       inkscape:export-ydpi="90"
       inkscape:export-xdpi="90"
       inkscape:export-filename="C:\Documents and Settings\Julio Enciso\Escritorio\Bombardi. SDL edition\bild\CON_N.png"
       id="g3872"
       transform="matrix(0.13546668,0,0,0.13546667,-130.42656,1034.1841)">
      <path
         inkscape:connector-curvature="0"
         id="path3874"
         d="m 35.433071,880.51046 283.464569,0 0,-10.62992 -283.464569,0 0,10.62992 z"
         style="fill:#131415;stroke:none" />
      <path
         inkscape:connector-curvature="0"
         id="path3876"
         d="m 53.149641,892.91204 -26.574803,0 L 3.435318e-5,875.12556 26.574838,857.47897 l 26.574803,0 0,17.64659 0,17.78648 z"
         style="fill:#131415;stroke:none" />
      <path
         inkscape:connector-curvature="0"
         id="path3878"
         d="m 150.06243,902.3543 -11.04602,-27.39052 11.06923,-26.90388 27.08479,-11.21781 27.09785,11.19466 10.88829,26.89454 -10.91143,27.39988 -26.79137,10.87932 -27.3914,-10.85624 z"
         style="fill:#131415;stroke:none" />
      <use
         x="0"
         y="0"
         xlink:href="#path562"
         id="use3880"
         transform="matrix(-1,0,0,1,354.33075,0)"
         width="354.33069"
         height="354.33069" />
      <use
         x="0"
         y="0"
         xlink:href="#path562"
         id="use3882"
         transform="matrix(0,1,-1,0,1052.3609,698.03012)"
         width="354.33069"
         height="354.33069" />
      <use
         x="0"
         y="0"
         xlink:href="#use7718"
         id="use3884"
         transform="matrix(1,0,0,-1,0,1750.391)"
         width="354.33069"
         height="354.33069" />
      <use
         x="0"
         y="0"
         xlink:href="#path560"
         id="use3886"
         transform="matrix(0,1,-1,0,1052.3609,698.03014)"
         width="354.33069"
         height="354.33069" />
      <use
         x="0"
         y="0"
         xlink:href="#path560"
         id="use3888"
         transform="matrix(0.70710678,-0.70710678,0.70710678,0.70710678,-566.96614,381.61367)"
         width="354.33069"
         height="354.33069" />
      <use
         x="0"
         y="0"
         xlink:href="#path562"
         id="use3890"
         transform="matrix(0.70710678,-0.70710678,0.70710678,0.70710678,-566.96614,381.61367)"
         width="354.33069"
         height="354.33069" />
      <use
         x="0"
         y="0"
         xlink:href="#use7716"
         id="use3892"
         transform="matrix(0.70710678,-0.70710678,0.70710678,0.70710678,-566.96614,381.61367)"
         width="354.33069"
         height="354.33069" />
      <use
         x="0"
         y="0"
         xlink:href="#path560"
         id="use3894"
         transform="matrix(0.70710678,0.70710678,0.70710678,-0.70710678,-566.86722,1368.7773)"
         width="354.33069"
         height="354.33069" />
      <use
         x="0"
         y="0"
         xlink:href="#path562"
         id="use3896"
         transform="matrix(0.70710678,0.70710678,0.70710678,-0.70710678,-566.86722,1368.7773)"
         width="354.33069"
         height="354.33069" />
      <use
         x="0"
         y="0"
         xlink:href="#use7716"
         id="use3898"
         transform="matrix(0.70710678,0.70710678,0.70710678,-0.70710678,-566.86722,1368.7773)"
         width="354.33069"
         height="354.33069" />
    </g>
    <path
       style="fill:#c8c8c8;fill-opacity:1;stroke:none;display:inline"
       d="m -109.73322,1144.7439 6.61334,0 4.693331,4.6934 0,6.6132 -4.693331,4.6934 -6.61334,0 -4.69333,-4.6934 0,-6.6132 z"
       id="path3900"
       inkscape:connector-curvature="0"
       sodipodi:nodetypes="ccccccccc"
       inkscape:export-filename="C:\Documents and Settings\Julio Enciso\Escritorio\Bombardi. SDL edition\bild\CON_N.png"
       inkscape:export-xdpi="90"
       inkscape:export-ydpi="90" />
  </g>
</svg>
